<svg xmlns="http://www.w3.org/2000/svg" viewBox="0 0 8498.9 650.42"><defs><style>.cls-1{fill:#010101;}</style></defs><g id="Layer_2" data-name="Layer 2"><g id="Layer_2-2" data-name="Layer 2"><path class="cls-1" d="M10480.06-3724.72c-28.56,9.61-54.67,5.91-81.66,1.83-102.22-15.44-203.7-20.34-303.57,14.27-6.87,2.38-15.92,1.26-23.2-.85-48.71-14.06-96.91-29.92-145.86-43.05s-95.09-5.15-138.22,22.61c-7.59,4.89-20.68,5.79-29.66,3.16-37.74-11-74.26-25.41-114.85-24.86-47.24.65-90.8,14.16-134,31.18-15,5.91-31,9.2-46.59,13.68q-1.56-3.12-3.14-6.24,34.08-62,68.18-124c5.91-10.71,12.12-21.25,18.34-31.78,16.93-28.65,16.58-34.79-6.46-79.65l-110,199.63c-5.79-27.41-9.1-50.51-16.11-72.43-2.68-8.37-13.19-18.22-21.35-19.47-5.51-.85-15,11.16-19.35,19.23-4.94,9.14-6.14,20.3-9.65,33.11-4.26-13.71-6-25.31-11.42-34.79-4.37-7.65-12.92-17.2-20.16-17.68-6.74-.45-16.69,8.56-20.85,15.89-10,17.57-17.37,36.59-27.51,58.76-4-13.84-8.84-24-9.52-34.35-1.48-22.81-16.08-37.32-29.87-52.52-9.72-10.72-26.93-8.51-34.2,4-4,7-7.62,14.25-9.22,17.26-10.41-5.4-19.26-13.14-28.84-14.17-12.65-1.35-17,9.25-19.53,21.29-8,38.32-17.35,76.37-26.78,117.12-17.37-6.56-33.42-13.4-50-18.73-34.63-11.17-63.39-28-87.83-57.49-38.63-46.6-83.33-88.17-125.41-131.93-11.4-11.86-22.59-23.94-36-34.26,2.22,36.49,5.84,70.28,34.89,97,32.21,29.67,60.91,63.15,92.65,96.57-69-8-133.75-2.14-195.87,20.72-26.26,9.67-50.87,13.61-78.86,9.92-48.73-6.41-98-11.63-147-12.14a588.44,588.44,0,0,0-190.78,29.65c-22.14,7.3-41.93,7.49-63.37.64-62.24-19.88-125.77-31.16-191.24-36.43-101.46-8.17-200.3,2.07-298.35,27-7.85,2-17,.3-25.27-1-32.8-5.3-65.52-11.13-102.13-17.43l156.91-117.42c-13.22-3.84-24.09-6.62-34.71-10.17-20.75-6.94-34,6.71-48.19,17.3-45.83,34.28-91.33,69-137.35,103-4.37,3.23-11.36,3.69-17.22,4-28.77,1.5-57.6,1.94-86.32,4-12,.85-15.44-5.29-17.64-14.76-5.35-23-9.71-46.32-17-68.7-2.54-7.86-12-18.12-18.95-18.62-7.17-.51-18.46,7.85-22.07,15.22-12.75,26-22.44,53.45-34.51,79.8-3.39,7.41-10.94,12.91-16.58,19.29-4.68-5.74-10.74-10.82-13.78-17.32-11.46-24.52-20.71-50.15-33.45-73.95-4.55-8.51-16.79-18.29-25.26-18.06-13.08.35-19.78,12.37-18,27.11,1,8.17.18,16.55.18,22-4.75-6.5-9-18.44-16.67-21.22-8.41-3-19.88,2.3-31.22,4.2-3.55-8.89-6.5-21.13-13.05-31-4.58-6.89-14.26-14.67-21.32-14.36-6.14.26-13.46,10.49-17.2,17.86-3.48,6.86-3.37,15.73-4,23.78-.61,7.55-.13,15.19-.13,19.19l-274.18-203.58c7.48,24.5,11.49,44.82,20.07,63,5.09,10.79,16.51,19.38,26.62,26.89,48.83,36.28,98.19,71.86,143.09,104.59-5.79,12.62-10.28,23.79-16,34.26-2.58,4.71-7.13,10.48-11.77,11.56-33,7.73-67.36,11.11-99,22.29-29.42,10.38-56,2.28-83.66-1.47-50.7-6.85-101.15-17-152.72-8.5-43.44,7.2-86.8,15.18-130.47,20.54a106.76,106.76,0,0,1-46.87-5.39c-63.51-22.42-128.86-29.1-195.56-26.58-6,.22-11.84,2.61-17.75,4-5.92-1.38-11.8-3.77-17.76-4-66.7-2.52-132,4.16-195.55,26.58a106.78,106.78,0,0,1-46.87,5.39c-43.68-5.36-87-13.34-130.48-20.54-51.57-8.54-102,1.65-152.72,8.5-27.68,3.75-54.24,11.85-83.66,1.47-31.67-11.18-66.05-14.56-99-22.29-4.65-1.08-9.19-6.85-11.78-11.56-5.76-10.47-10.24-21.64-16-34.26,44.91-32.73,94.26-68.31,143.09-104.59,10.11-7.51,21.53-16.1,26.63-26.89,8.58-18.16,12.58-38.48,20.06-63l-274.18,203.58c0-4,.48-11.64-.13-19.19-.64-8.05-.54-16.92-4-23.78-3.74-7.37-11.06-17.6-17.19-17.86-7.07-.31-16.74,7.47-21.33,14.36-6.54,9.86-9.5,22.1-13.05,31-11.34-1.9-22.81-7.25-31.22-4.2-7.63,2.78-11.92,14.72-16.66,21.22,0-5.45-.8-13.83.17-22,1.76-14.74-4.94-26.76-18-27.11-8.47-.23-20.7,9.55-25.26,18.06-12.73,23.8-22,49.43-33.45,73.95-3,6.5-9.1,11.58-13.77,17.32-5.65-6.38-13.2-11.88-16.59-19.29-12.07-26.35-21.76-53.82-34.51-79.8-3.61-7.37-14.9-15.73-22.07-15.22-6.93.5-16.41,10.76-18.95,18.62-7.25,22.38-11.61,45.71-16.95,68.7-2.21,9.47-5.64,15.61-17.64,14.76-28.73-2-57.56-2.46-86.33-4-5.85-.3-12.85-.76-17.22-4-46-34-91.52-68.76-137.35-103-14.17-10.59-27.44-24.24-48.19-17.3-10.61,3.55-21.48,6.33-34.71,10.17l156.92,117.42c-36.62,6.3-69.33,12.13-102.14,17.43-8.3,1.34-17.42,3-25.26,1-98.05-24.94-196.9-35.18-298.36-27-65.47,5.27-129,16.55-191.24,36.43-21.44,6.85-41.23,6.66-63.37-.64a588.44,588.44,0,0,0-190.78-29.65c-49.08.51-98.31,5.73-147.05,12.14-28,3.69-52.6-.25-78.86-9.92-62.12-22.86-126.85-28.69-195.87-20.72,31.75-33.42,60.45-66.9,92.66-96.57,29-26.75,32.66-60.54,34.88-97-13.4,10.32-24.58,22.4-36,34.26-42.07,43.76-86.78,85.33-125.4,131.93-24.44,29.5-53.21,46.32-87.84,57.49-16.53,5.33-32.58,12.17-49.95,18.73-9.42-40.75-18.75-78.8-26.78-117.12-2.52-12-6.88-22.64-19.53-21.29-9.57,1-18.43,8.77-28.84,14.17-1.6-3-5.16-10.28-9.22-17.26-7.27-12.53-24.47-14.74-34.2-4-13.79,15.2-28.39,29.71-29.87,52.52-.68,10.39-5.52,20.51-9.51,34.35-10.15-22.17-17.55-41.19-27.52-58.76-4.16-7.33-14.11-16.34-20.84-15.89-7.25.48-15.79,10-20.17,17.68-5.43,9.48-7.15,21.08-11.42,34.79-3.51-12.81-4.71-24-9.65-33.11-4.35-8.07-13.83-20.08-19.35-19.23-8.16,1.25-18.67,11.1-21.34,19.47-7,21.92-10.33,45-16.12,72.43-37.71-68.44-73.35-133.13-110-199.63-23,44.86-23.39,51-6.47,79.65,6.23,10.53,12.43,21.07,18.34,31.78Q3176-3775,3210-3713l-3.14,6.24c-15.56-4.48-31.59-7.77-46.59-13.68-43.19-17-86.76-30.53-134-31.18-40.59-.55-77.11,13.82-114.85,24.86-9,2.63-22.07,1.73-29.66-3.16-43.12-27.76-89.29-35.75-138.22-22.61s-97.15,29-145.85,43.05c-7.29,2.11-16.34,3.23-23.2.85-99.88-34.61-201.36-29.71-303.57-14.27-27,4.08-53.11,7.78-81.67-1.83-33-11.09-69.2-12.4-104-18v91.3c26.93-3.69,53.76-8.45,80.81-10.75,24.86-2.11,48.38-12.44,75.18-2,98.57,38.46,199.58,46.22,302.42,17,15.74-4.46,32.24-9.48,48.2-8.93,15.71.54,30.95,9.23,46.81,11.87,32.21,5.36,65.63,16,96.85,11.84,49.08-6.58,96.69-23.91,145.11-35.93,7.85-2,17.46-2.16,24.92.53,49.84,18,102,20,153.68,19.56,39.29-.3,78.53-8.46,117.77-13.31,23.57-2.91,41.8,15.37,37.61,37.32-5,26.31-9.33,52.76-13.5,76.58,53.94,4.92,51.13-37,56-64.64L3301.1-3598c5.89,3.2,14.77,11.95,23.85,12.16,22.71.55,15.19-23.81,24-35.8,18.93,29.18,30.43,28.83,48.48,3.67,15.81-.92,28.69.15,40.49-2.94,9.56-2.5,17.81-10,25.35-14.53,8.9,13.32,13.49,27.54,22.71,31.85,8.41,3.92,21.84-2.91,34.84-5.34a16.74,16.74,0,0,1,3.47,6.77c15.62,67.87,31.49,135.68,46.15,203.76,5.2,24.14,18.44,41.54,38.58,60.94,0-31.61,3.82-58.67-.79-84.21-9.95-55.22-24.75-109.56-36.16-164.55-1.6-7.7,3.21-18,7.78-25.39,5-8,14.67-13.13,19.6-21.17,13.27-21.64,33.3-19.64,53.74-17.62,9.49,1,19,3.13,28.43,2.93,36.42-.77,73-.26,109.19-4,44.57-4.65,88.74-13.16,133.1-19.84,9.18-1.38,19.8-5.45,27.49-2.46A679.22,679.22,0,0,0,4149-3628.92c51.15,3.81,100.66-.42,150.51-9.12,25.9-4.52,53.38-15.59,77.69-10.92,93,17.87,185.6,30.1,280.7,23.74,62.92-4.2,123.74-16.56,184.23-32.73,24.15-6.46,47.83-12.29,73.89-6a986.41,986.41,0,0,0,114,20.78c32.63,3.9,65.82,3.17,98.78,4.24,22.36.72,32.89,14.43,27.45,36.28-6.86,27.52-14.15,54.93-20.27,82.61a41.43,41.43,0,0,0,1.52,22c6.17,16.77,14,32.95,22.79,53.25l40.32-149.16c16.4,12.65,31.09,24.73,46.55,35.71,18.64,13.25,31.74,9.48,42.07-10.77,3.51-6.88,7.43-13.54,12.16-22.1,4.67,8.55,8.76,14.71,11.56,21.41,11.61,27.72,26.42,30.2,40.44,12.9,15.55,1.44,30.48,7.38,37.88,2.31,8.74-6,11-21.47,16.63-34.2,4.61,14.07,5.29,29.61,13.36,36.45,6.21,5.28,21.7-.39,33.07-1.2q-.17-3.09-.32-6.2c22.19,14.22,30.36,12.5,43.06-9.73,8.36-14.62,16.6-29.34,24.18-44.37,18.31-36.31,18.14-36.4,60.94-32,4.53,18,9.11,36.26,13.74,54.53,15.24,60.22,30.2,120.53,46,180.6,3,11.36,6.72,25,14.92,31.92,11.58,9.7,27.63,14.05,43.49,21.5-25.3-98.65-50.09-195.28-75.21-293.2,25.55-4.51,50.84-9.17,76.21-13.35,14.38-2.38,29.44-7.42,43.24-5.24,35.29,5.57,69.76,16.41,105.07,21.68,70.42,10.51,140.85,7,210.24-8.67,22.13-5,42.77-9.37,66-4.39,26.55,5.69,54.14,7.92,81.38,8.78,42.42,1.34,84.93.25,127.4.2s85,1.14,127.4-.2c27.23-.86,54.82-3.09,81.38-8.78,23.19-5,43.83-.61,66,4.39,69.39,15.68,139.82,19.18,210.24,8.67,35.32-5.27,69.79-16.11,105.07-21.68,13.81-2.18,28.86,2.86,43.25,5.24,25.36,4.18,50.65,8.84,76.2,13.35-25.12,97.92-49.9,194.55-75.21,293.2,15.86-7.45,31.92-11.8,43.49-21.5,8.21-6.88,11.94-20.56,14.93-31.92,15.82-60.07,30.78-120.38,46-180.6,4.63-18.27,9.21-36.55,13.74-54.53,42.8-4.36,42.63-4.27,60.94,32,7.59,15,15.82,29.75,24.18,44.37,12.7,22.23,20.87,23.95,43.06,9.73-.1,2.07-.21,4.14-.31,6.2,11.36.81,26.85,6.48,33.07,1.2,8.06-6.84,8.75-22.38,13.35-36.45,5.66,12.73,7.89,28.23,16.63,34.2,7.41,5.07,22.34-.87,37.88-2.31,14,17.3,28.83,14.82,40.44-12.9,2.81-6.7,6.89-12.86,11.56-21.41,4.73,8.56,8.66,15.22,12.17,22.1,10.32,20.25,23.42,24,42.06,10.77,15.46-11,30.15-23.06,46.55-35.71,13.39,49.5,26.42,97.73,40.33,149.16,8.82-20.3,16.61-36.48,22.78-53.25a41.33,41.33,0,0,0,1.52-22c-6.11-27.68-13.4-55.09-20.26-82.61-5.45-21.85,5.09-35.56,27.45-36.28,32.95-1.07,66.14-.34,98.77-4.24a986,986,0,0,0,114-20.78c26.07-6.29,49.75-.46,73.89,6,60.49,16.17,121.31,28.53,184.23,32.73,95.1,6.36,187.74-5.87,280.7-23.74,24.31-4.67,51.79,6.4,77.7,10.92,49.85,8.7,99.36,12.93,150.5,9.12a679.07,679.07,0,0,0,197.58-44.83c7.69-3,18.31,1.08,27.49,2.46,44.37,6.68,88.53,15.19,133.1,19.84,36.15,3.76,72.77,3.25,109.19,4,9.45.2,19-2,28.43-2.93,20.45-2,40.47-4,53.74,17.62,4.93,8,14.63,13.15,19.6,21.17,4.57,7.4,9.38,17.69,7.78,25.39-11.41,55-26.2,109.33-36.16,164.55-4.61,25.54-.79,52.6-.79,84.21,20.14-19.4,33.38-36.8,38.58-60.94,14.67-68.08,30.54-135.89,46.15-203.76a16.54,16.54,0,0,1,3.48-6.77c13,2.43,26.43,9.26,34.83,5.34,9.22-4.31,13.82-18.53,22.71-31.85,7.54,4.52,15.79,12,25.35,14.53,11.8,3.09,24.69,2,40.5,2.94,18,25.16,29.54,25.51,48.47-3.67,8.84,12,1.31,36.35,24,35.8,9.08-.21,18-9,23.85-12.16l44-14.22c4.86,27.65,2.05,69.56,56,64.64-4.17-23.82-8.48-50.27-13.51-76.58-4.19-22,14-40.23,37.62-37.32,39.24,4.85,78.47,13,117.76,13.31,51.67.41,103.84-1.59,153.69-19.56,7.46-2.69,17.07-2.48,24.92-.53,48.41,12,96,29.35,145.1,35.93,31.22,4.18,64.64-6.48,96.85-11.84,15.86-2.64,31.1-11.33,46.81-11.87,16-.55,32.47,4.47,48.2,8.93,102.84,29.18,203.85,21.42,302.42-17,26.8-10.46,50.33-.13,75.18,2,27,2.3,53.89,7.06,80.81,10.75v-91.3C10549.27-3737.12,10513-3735.81,10480.06-3724.72Zm-8156.38,41.41c0-2.88,0-5.75.05-8.63,32.79,0,65.61-.83,98.37.26,26.41.88,52.74,4.09,79,8C2441.44-3666.07,2382.44-3670.26,2323.68-3683.31Zm342.69,1.16c38-22.93,144.61-48.21,173.86-18.24C2784-3676.82,2726.79-3668.57,2666.37-3682.15Zm302-13.62c55.43-15.68,105.37-13.55,127.44,0Zm691.05,2.56c21.32-26.54,138.19-32,207.65-8.89C3795.38-3694.43,3728.19-3682.95,3659.38-3693.21Zm390.25,3.53c73.59-1.94,147.46-10,219.71,12.7C4195.5-3668.2,4122.09-3668.88,4049.63-3689.68Zm407.47,10.61c110.72-29.06,222.55-32.13,339.72-12C4681.86-3659.73,4569.7-3664.18,4457.1-3679.07Zm618.65-3.16-62-4.48.75-7.13,61.94,4.22Zm181.93,77.88-51.9-39.79,74.49-13.28Zm80.24-23.41-7.28-1c0-11.75-1.47-23.79.75-35.11.85-4.34,10.14-7,15.58-10.46l5.63,4.54Q5345.27-3648.78,5337.92-3627.76Zm640.52-59.82H5849.36l.06-2.47h129.35Zm484.47-5.3H6206.36c-.13-2.12-.27-4.23-.4-6.34,33.42-1.62,66.84-3.55,100.28-4.66,9.43-.32,18.93,1.73,28.4,2.7,9.46-1,19-3,28.39-2.7,33.44,1.11,66.86,3,100.29,4.66C6463.18-3697.11,6463.05-3695,6462.91-3692.88Zm227.92,5.3-.33-2.47h129.35c0,.83,0,1.65.07,2.47Zm647.8,58.8-7.28,1q-7.34-21-14.68-42l5.63-4.54c5.44,3.44,14.73,6.12,15.58,10.46C7340.11-3652.57,7338.63-3640.53,7338.63-3628.78Zm73,24.43c-7.12-16.72-13.59-31.92-22.58-53.07l74.48,13.28Zm181.93-77.88-.72-7.39,61.94-4.22.75,7.13Zm278.93-8.83c117.17-20.14,229-17.07,339.72,12C8099.57-3664.18,7987.41-3659.73,7872.45-3691.06ZM8399.94-3677c72.24-22.65,146.11-14.64,219.7-12.7C8547.19-3668.88,8473.77-3668.2,8399.94-3677Zm402.31-25.12c69.46-23.07,186.33-17.65,207.65,8.89C8941.08-3682.95,8873.9-3694.43,8802.25-3702.1Zm771.25,6.33c22.07-13.55,72-15.68,127.44,0Zm255.54-4.62c29.26-30,135.83-4.69,173.86,18.24C9942.49-3668.57,9885.28-3676.82,9829-3700.39Zm339.15,16.69c26.25-3.89,52.58-7.1,79-8,32.76-1.09,65.58-.26,98.38-.26l.05,8.63C10286.83-3670.26,10227.83-3666.07,10168.19-3683.7Z" transform="translate(-2085.19 3987.84)"/></g></g></svg>