<svg xmlns="http://www.w3.org/2000/svg" viewBox="0 0 300 300"><defs><style>.cls-1{fill:#a51e23;}</style></defs><g id="Layer_2" data-name="Layer 2"><g id="Layer_2-2" data-name="Layer 2"><path class="cls-1" d="M287.54,231.17c.24,0,.71,0,1.17,0a4.11,4.11,0,0,0,1.46-.24c.45-.23,1.07-.67,1.09-1a1.91,1.91,0,0,0-.88-1.3,10.25,10.25,0,0,0-1.9-.79c.12-.69.45-1.39.26-1.9s-.9-.72-1.3-1a10.26,10.26,0,0,1,1.35,0c.9.1,1.64-.3,1.66-1.1a2.21,2.21,0,0,0-1.11-1.54c-1.45-.77-3-1.34-4.53-2a6.85,6.85,0,0,1-1.06-.84,5.65,5.65,0,0,1,1.19-1c1.61-.74,3.29-1.32,4.88-2.1a1.82,1.82,0,0,0,.93-1.34c0-.43-.66-1-1.14-1.16-1.37-.44-2.8-.7-4.2-1-.58-.13-1-.34-.91-1.07.13-1.75.15-3.5.25-5.26a1.89,1.89,0,0,1,.24-1L291.3,197c.65-.86,1.48-1.67,1.06-2.93-.22-.65-.39-1.31-.63-2.12l-7.18,9.55c-.39-2.23-.73-4.22-1.07-6.21a4,4,0,0,1-.07-1.54,54.7,54.7,0,0,0,1.66-18.16A50.89,50.89,0,0,0,282.84,164a5.87,5.87,0,0,1,0-3.86,35.85,35.85,0,0,0,1.81-11.61,74.66,74.66,0,0,0-.74-9,9.49,9.49,0,0,1,.61-4.8,25.38,25.38,0,0,0,1.27-11.92c2,1.93,4.09,3.68,5.91,5.64,1.64,1.77,3.7,2,5.94,2.12a20.72,20.72,0,0,0-2.1-2.19c-2.68-2.56-5.22-5.28-8.08-7.63a11,11,0,0,1-3.52-5.34c-.32-1-.74-2-1.14-3,2.49-.58,4.82-1.14,7.17-1.63.73-.16,1.38-.42,1.3-1.19a6,6,0,0,0-.87-1.76c.19-.09.63-.31,1.06-.56a1.29,1.29,0,0,0,.25-2.08,5.32,5.32,0,0,0-3.22-1.82,10.74,10.74,0,0,1-2.1-.58c1.35-.61,2.52-1.06,3.6-1.67.44-.25,1-.86,1-1.27s-.62-1-1.08-1.23a11.35,11.35,0,0,0-2.13-.69,10,10,0,0,0,2-.59c.5-.26,1.23-.84,1.18-1.18a2,2,0,0,0-1.19-1.29c-1.34-.43-2.76-.63-4.44-1l12.23-6.69c-2.75-1.4-3.13-1.42-4.88-.39-.64.38-1.29.76-1.95,1.11L283.17,92l-.38-.19c.27-.94.48-1.92.84-2.83a22.91,22.91,0,0,0,1.91-8.16c0-2.47-.85-4.69-1.53-7a2.43,2.43,0,0,1,.2-1.8,10,10,0,0,0,1.38-8.41c-.8-3-1.77-5.91-2.63-8.88a2.52,2.52,0,0,1-.06-1.41,29.64,29.64,0,0,0,1.59-9.18c0-.77,0-1.55,0-2.32l-.06-1.16-.08-1.22c-.13-1.88-.33-3.72-.56-5.51a15.56,15.56,0,0,1,.06-5.92,28.8,28.8,0,0,0,.18-7.67l-4.62,3.77c.23,1.39.52,2.8.66,4.37.12,1.41.76,2.64.12,4.53-.59,1.7-1.06,3.25-1.41,4.7-.17.73-.32,1.43-.43,2.14s-.19,1.53-.24,2.29a27.31,27.31,0,0,0,1,9.3,9.71,9.71,0,0,1,.54,2.94,23.18,23.18,0,0,1-.72,2.84c-.33,2-1,4-.73,5.9a83.74,83.74,0,0,0,2.2,8.83,2.8,2.8,0,0,1,0,1.52,26.51,26.51,0,0,0-1.2,9.35A62,62,0,0,0,280,90a2,2,0,0,1-2.29,2.29c-1.61-.3-3.23-.56-4.69-.82-.3,3.28,2.27,3.11,4,3.41l-.87,2.68c-.2.36-.73.9-.75,1.45,0,1.38,1.46.93,2.2,1.46-1.79,1.15-1.77,1.85-.23,3a13.78,13.78,0,0,0,.18,2.47,6.46,6.46,0,0,0,.89,1.54c-.81.54-1.69.82-1.95,1.38s.18,1.33.33,2.12a.91.91,0,0,1-.42.21c-4.15,1-8.3,1.92-12.47,2.81a7.17,7.17,0,0,0-3.73,2.35,31.14,31.14,0,0,0,5.15,0c3.38-.6,6.71-1.5,10.08-2.2a2.49,2.49,0,0,1,1.55.47c.49.31.81.9,1.3,1.2,1.32.8,1.2,2,1.08,3.27a14.5,14.5,0,0,0-.18,1.73c0,2.21,0,4.44.24,6.64.29,2.71.81,5.4,1.22,8.1a3.82,3.82,0,0,1,.15,1.68,41.14,41.14,0,0,0-2.75,12,36.94,36.94,0,0,0,.56,9.16c.28,1.57,1,3.25.67,4.73a66.17,66.17,0,0,0-1.45,17.08,58.16,58.16,0,0,0,2,11.21,8.78,8.78,0,0,1,.37,4.5,60.31,60.31,0,0,0-1.27,6.93c-.24,2-.2,4-.26,6a1.61,1.61,0,0,1-2.22,1.67c-1.69-.41-3.37-.86-5.06-1.23a2.58,2.58,0,0,0-1.35.09c-1,.38-2,.85-3.26,1.39l9.13,2.45c-.77,1-1.51,1.89-2.19,2.84-.81,1.13-.58,1.93.66,2.56.42.21.83.45,1.36.74-.53.28-.9.53-1.31.7-1.7.71-1.85,1.61-.79,2.46-.09.95-.46,1.85-.15,2.3s1.32.67,2.1,1c-.86.28-1.81.32-2.23.81s0,1.32.07,2l.38,0c-.87,1.35-.77,1.85.6,2.62.89.51,1.79,1,2.71,1.47,2.23,1.12,2.23,1.11,2,3.71l-3.33.84L264.66,240a3.88,3.88,0,0,0-2,.91,11.9,11.9,0,0,0-1.31,2.65L279.34,239c.27,1.55.55,3.09.82,4.64a8.9,8.9,0,0,1,.32,2.63c-.34,2.14-1,4.24-1.33,6.39a33.77,33.77,0,0,0-.34,6.42c.05,1.1.15,2.06.29,3.09s.34,2.08.58,3.18a9.26,9.26,0,0,1,.27,4.05,22.3,22.3,0,0,0-.54,4.54c-.09,1.19.16,2.51-.5,3.63a3.55,3.55,0,0,1-3.06,1.82l1.78,2.18a4.37,4.37,0,0,0,3.36-2.11c.76-1.22.58-2.6.72-3.93l.35.21-.06,1.63a6.3,6.3,0,0,1-.21,1.61,4.54,4.54,0,0,1-2,2.57A3.55,3.55,0,0,1,278,282l-2.11-2.58c-1.39.23-2.8.52-4.37.66-1.41.12-2.64.76-4.53.12-1.7-.59-3.25-1.06-4.7-1.41-.73-.17-1.43-.32-2.14-.43s-1.53-.19-2.29-.24a27.31,27.31,0,0,0-9.3,1,9.71,9.71,0,0,1-2.94.54,23.18,23.18,0,0,1-2.84-.72c-2-.33-4-1-5.9-.73a81.35,81.35,0,0,0-8.83,2.2,2.8,2.8,0,0,1-1.52,0,26.51,26.51,0,0,0-9.35-1.2A62,62,0,0,0,210,280a2,2,0,0,1-2.29-2.29c.3-1.61.56-3.23.82-4.69-3.28-.3-3.11,2.27-3.41,4l-2.68-.87c-.36-.2-.9-.73-1.45-.75-1.38,0-.93,1.46-1.46,2.2-1.16-1.79-1.85-1.77-2.95-.23a13.78,13.78,0,0,0-2.47.18,6.14,6.14,0,0,0-1.54.89c-.54-.81-.82-1.69-1.38-1.95s-1.33.18-2.12.33a.91.91,0,0,1-.21-.42c-1-4.15-1.92-8.3-2.81-12.47a7.13,7.13,0,0,0-2.35-3.73,31.14,31.14,0,0,0,0,5.15c.6,3.38,1.5,6.71,2.2,10.08a2.49,2.49,0,0,1-.47,1.55c-.31.49-.9.81-1.2,1.3-.81,1.32-2,1.2-3.27,1.08a14.29,14.29,0,0,0-1.73-.18c-2.21,0-4.44,0-6.64.24-2.71.29-5.4.81-8.1,1.22a3.82,3.82,0,0,1-1.68.15,41.14,41.14,0,0,0-12-2.75,36.94,36.94,0,0,0-9.16.56c-1.57.28-3.25,1-4.73.67a66.17,66.17,0,0,0-17.08-1.45,58.16,58.16,0,0,0-11.21,2,8.78,8.78,0,0,1-4.5.37,60.31,60.31,0,0,0-6.93-1.27c-2-.24-4-.2-6-.26a1.61,1.61,0,0,1-1.67-2.22c.41-1.69.86-3.37,1.23-5.06a2.58,2.58,0,0,0-.09-1.35c-.38-1-.85-2-1.39-3.26-.84,3.15-1.64,6.1-2.45,9.13-1-.77-1.89-1.51-2.84-2.19-1.13-.81-1.93-.58-2.55.66-.22.43-.46.83-.75,1.36-.28-.53-.53-.9-.7-1.31-.71-1.7-1.61-1.85-2.46-.79-1-.09-1.85-.46-2.3-.15s-.67,1.32-1,2.1c-.28-.86-.32-1.81-.81-2.23s-1.32,0-2,.07l0,.38c-1.35-.87-1.85-.77-2.62.6-.51.89-1,1.79-1.47,2.71-1.12,2.23-1.11,2.23-3.71,2l-.84-3.33L60,264.66a3.88,3.88,0,0,0-.91-2,11.9,11.9,0,0,0-2.65-1.31L61,279.34l-4.64.82a8.9,8.9,0,0,1-2.63.32c-2.14-.34-4.24-1-6.39-1.33a33.77,33.77,0,0,0-6.42-.34c-1.1.05-2.06.15-3.09.29s-2.08.34-3.18.58a9.26,9.26,0,0,1-4.05.27,22.3,22.3,0,0,0-4.54-.54c-1.19-.09-2.51.16-3.63-.5a3.55,3.55,0,0,1-1.82-3.06c-.23-1.39-.52-2.8-.66-4.37-.12-1.41-.76-2.64-.12-4.53.59-1.7,1.06-3.25,1.41-4.7.17-.73.32-1.43.43-2.14s.19-1.53.24-2.29a27.31,27.31,0,0,0-1-9.3,9.71,9.71,0,0,1-.54-2.94,23.18,23.18,0,0,1,.72-2.84c.33-2,1-4,.73-5.9a81.35,81.35,0,0,0-2.2-8.83,2.8,2.8,0,0,1,0-1.52,26.51,26.51,0,0,0,1.2-9.35A62,62,0,0,0,20,210a2,2,0,0,1,2.29-2.29c1.61.3,3.23.56,4.69.82.3-3.28-2.27-3.11-4-3.41l.87-2.68c.2-.36.73-.9.75-1.45,0-1.38-1.46-.93-2.2-1.46,1.79-1.16,1.77-1.85.23-2.95a13.78,13.78,0,0,0-.18-2.47,6.14,6.14,0,0,0-.89-1.54c.81-.54,1.69-.82,2-1.38s-.18-1.33-.33-2.12a.91.91,0,0,1,.42-.21c4.15-1,8.3-1.92,12.47-2.81a7.13,7.13,0,0,0,3.73-2.35,31.14,31.14,0,0,0-5.15,0c-3.38.6-6.71,1.5-10.08,2.2a2.49,2.49,0,0,1-1.55-.47c-.49-.31-.81-.9-1.3-1.2-1.32-.81-1.2-2-1.08-3.27a14.29,14.29,0,0,0,.18-1.73c-.05-2.21,0-4.44-.24-6.64-.29-2.71-.81-5.4-1.22-8.1a3.82,3.82,0,0,1-.15-1.68,41.14,41.14,0,0,0,2.75-12,36.94,36.94,0,0,0-.56-9.16c-.28-1.57-1-3.25-.67-4.73a66.17,66.17,0,0,0,1.45-17.08,58.16,58.16,0,0,0-2-11.21,8.78,8.78,0,0,1-.37-4.5,60.31,60.31,0,0,0,1.27-6.93c.24-2,.2-4,.26-6a1.61,1.61,0,0,1,2.22-1.67c1.69.41,3.37.86,5.06,1.23A2.58,2.58,0,0,0,30,90.67c1-.38,2-.85,3.26-1.39l-9.13-2.45c.77-1,1.51-1.89,2.19-2.84.81-1.13.58-1.93-.66-2.55-.42-.22-.83-.46-1.36-.75.53-.28.9-.53,1.31-.7,1.7-.71,1.85-1.61.79-2.46.09-1,.46-1.85.15-2.31s-1.32-.66-2.1-1c.86-.28,1.81-.32,2.23-.81s0-1.32-.07-2l-.38,0c.87-1.35.77-1.85-.6-2.62-.89-.51-1.79-1-2.71-1.47-2.23-1.12-2.23-1.11-2-3.71l3.33-.84L35.34,60a3.88,3.88,0,0,0,2-.91,11.9,11.9,0,0,0,1.31-2.65L20.66,61c-.27-1.55-.55-3.09-.82-4.64a8.9,8.9,0,0,1-.32-2.63c.34-2.14,1-4.24,1.33-6.39a33.77,33.77,0,0,0,.34-6.42c-.05-1.1-.15-2.06-.29-3.09s-.34-2.08-.58-3.18a9.26,9.26,0,0,1-.27-4.05,22.3,22.3,0,0,0,.54-4.54c.09-1.19-.16-2.51.5-3.63a3.55,3.55,0,0,1,3.06-1.82c1.39-.23,2.8-.52,4.37-.66,1.41-.12,2.64-.76,4.53-.12,1.7.59,3.25,1.06,4.7,1.41.73.17,1.43.32,2.14.43s1.53.19,2.29.24a27.31,27.31,0,0,0,9.3-1,9.71,9.71,0,0,1,2.94-.54,23.18,23.18,0,0,1,2.84.72c2,.33,4,1,5.9.73A83.74,83.74,0,0,0,72,19.57a2.8,2.8,0,0,1,1.52,0,26.51,26.51,0,0,0,9.35,1.2A62,62,0,0,0,90,20a2,2,0,0,1,2.29,2.29c-.3,1.61-.56,3.23-.82,4.69,3.28.3,3.11-2.27,3.41-4l2.68.87c.36.2.9.73,1.45.75,1.38,0,.93-1.46,1.46-2.2,1.16,1.79,1.85,1.77,3,.23a13.78,13.78,0,0,0,2.47-.18,6.46,6.46,0,0,0,1.54-.89c.54.81.82,1.69,1.38,2s1.33-.18,2.12-.33a.91.91,0,0,1,.21.42c1,4.15,1.92,8.3,2.81,12.47a7.17,7.17,0,0,0,2.35,3.73,31.14,31.14,0,0,0,0-5.15c-.6-3.38-1.5-6.71-2.2-10.08a2.49,2.49,0,0,1,.47-1.55c.31-.49.9-.81,1.2-1.3.81-1.32,2-1.2,3.27-1.08a14.5,14.5,0,0,0,1.73.18c2.21-.05,4.44,0,6.64-.24,2.71-.29,5.4-.81,8.1-1.22a3.82,3.82,0,0,1,1.68-.15,41.14,41.14,0,0,0,12,2.75,36.94,36.94,0,0,0,9.16-.56c1.57-.28,3.25-1,4.73-.67a66.17,66.17,0,0,0,17.08,1.45,58.16,58.16,0,0,0,11.21-2,8.78,8.78,0,0,1,4.5-.37,60.31,60.31,0,0,0,6.93,1.27c2,.24,4,.2,6,.26a1.61,1.61,0,0,1,1.67,2.22c-.41,1.69-.86,3.37-1.23,5.06a2.58,2.58,0,0,0,.09,1.35c.38,1,.85,2,1.39,3.26.84-3.15,1.64-6.1,2.45-9.13,1,.77,1.89,1.51,2.84,2.19,1.13.81,1.93.58,2.56-.66.21-.42.45-.83.74-1.36.28.53.53.9.7,1.31.71,1.7,1.61,1.85,2.46.79.95.09,1.85.46,2.31.15s.66-1.32,1-2.1c.28.86.32,1.81.81,2.23s1.32,0,2-.07l0-.38c1.35.87,1.85.76,2.62-.6.51-.89,1-1.79,1.47-2.71,1.12-2.23,1.11-2.23,3.71-2l.84,3.33L240,35.34a3.92,3.92,0,0,0,.91,2,11.9,11.9,0,0,0,2.65,1.31L239,20.66l4.64-.82a8.9,8.9,0,0,1,2.63-.32c2.14.34,4.24,1,6.39,1.33a33.77,33.77,0,0,0,6.42.34c1.1-.05,2.06-.15,3.09-.29s2.08-.34,3.18-.58a12.58,12.58,0,0,1,2.93-.4,4.58,4.58,0,0,1,1.12.13,22.3,22.3,0,0,0,4.54.54c1.19.09,2.51-.16,3.63.5a3.55,3.55,0,0,1,1.82,3.06l2.18-1.78A4.37,4.37,0,0,0,279.47,19c-1.22-.76-2.6-.59-3.93-.72l.21-.35,1.63.06a6.3,6.3,0,0,1,1.61.21,4.56,4.56,0,0,1,2.57,2A3.64,3.64,0,0,1,282,22l2-1.66a3.75,3.75,0,0,0-.17-1.3,5.42,5.42,0,0,0-2.34-2.62,7.19,7.19,0,0,0-3.3-.73,24.43,24.43,0,0,0-7.42.68,11.33,11.33,0,0,1-1.16.23,8.51,8.51,0,0,1-2.29.08c-1.49-.16-3-.36-4.55-.58l-2.35-.34-2-.33c-3.14-.53-6.21.1-9.29.52-1.69.23-3.3.72-5.09.09a54.92,54.92,0,0,0-6-1.37c-.28-.06-.56-.42-.72-.71-.35-.64-.62-1.32-1-2.09L245,5.5a5.07,5.07,0,0,0,1.62-1.64A31.71,31.71,0,0,0,247.86,0L231.17,12.46c0-.24,0-.71,0-1.17a4.11,4.11,0,0,0-.24-1.46c-.23-.45-.67-1.07-1-1.09a1.91,1.91,0,0,0-1.3.88,10.25,10.25,0,0,0-.79,1.9c-.69-.12-1.39-.45-1.9-.26s-.72.9-1,1.3a10.26,10.26,0,0,1,0-1.35c.1-.9-.3-1.64-1.1-1.66a2.21,2.21,0,0,0-1.54,1.11c-.77,1.45-1.34,3-2,4.53a6.85,6.85,0,0,1-.84,1.06,5.65,5.65,0,0,1-1-1.19c-.73-1.61-1.32-3.29-2.1-4.88a1.82,1.82,0,0,0-1.34-.93c-.43,0-1,.66-1.16,1.14-.44,1.37-.7,2.8-1,4.2-.13.58-.34,1-1.07.91-1.75-.13-3.5-.15-5.26-.25a1.89,1.89,0,0,1-1-.24L197,8.7c-.86-.65-1.67-1.48-2.93-1.06-.65.22-1.31.39-2.12.63l9.55,7.18-6.21,1.07a4,4,0,0,1-1.54.07,54.7,54.7,0,0,0-18.16-1.66A50.89,50.89,0,0,0,164,17.16a5.87,5.87,0,0,1-3.86,0,35.81,35.81,0,0,0-11.61-1.81,74.66,74.66,0,0,0-9,.74,9.6,9.6,0,0,1-4.8-.61,25.38,25.38,0,0,0-11.92-1.27c1.93-2,3.68-4.09,5.64-5.91,1.77-1.64,2-3.7,2.12-5.94a20.72,20.72,0,0,0-2.19,2.1c-2.56,2.68-5.28,5.22-7.63,8.08A11,11,0,0,1,115.42,16c-1,.32-2,.74-3,1.14-.58-2.49-1.14-4.82-1.63-7.17-.16-.73-.42-1.38-1.19-1.3a6,6,0,0,0-1.76.87c-.09-.19-.31-.63-.56-1.06a1.29,1.29,0,0,0-2.08-.25,5.32,5.32,0,0,0-1.82,3.22,10.74,10.74,0,0,1-.58,2.1c-.61-1.36-1.06-2.52-1.67-3.6-.25-.44-.86-1-1.27-1s-1,.62-1.23,1.08a11.35,11.35,0,0,0-.69,2.13,10,10,0,0,0-.59-2C97.05,9.69,96.47,9,96.13,9a2,2,0,0,0-1.29,1.19,45.42,45.42,0,0,0-1,4.44L87.16,2.41c-1.4,2.75-1.42,3.13-.39,4.88.38.64.76,1.29,1.12,2L92,16.83l-.19.38c-.94-.27-1.92-.48-2.83-.84a22.91,22.91,0,0,0-8.16-1.91c-2.47,0-4.69.85-7,1.53a2.43,2.43,0,0,1-1.8-.2,10,10,0,0,0-8.41-1.38c-3,.8-5.91,1.77-8.88,2.63a2.52,2.52,0,0,1-1.41.06,29.64,29.64,0,0,0-9.18-1.59c-.77,0-1.55,0-2.32,0l-1.16.06-1.22.08c-1.88.13-3.72.33-5.51.56a15.56,15.56,0,0,1-5.92-.06A28.8,28.8,0,0,0,20.38,16l2,2.44A4.37,4.37,0,0,0,19,20.53c-.76,1.22-.58,2.6-.72,3.93l-.35-.21L18,22.62a5.87,5.87,0,0,1,.2-1.61,4.54,4.54,0,0,1,2-2.57A3.58,3.58,0,0,1,22,18l-1.66-2a3.75,3.75,0,0,0-1.3.17,5.42,5.42,0,0,0-2.62,2.34,7.19,7.19,0,0,0-.73,3.3,24.43,24.43,0,0,0,.68,7.42,10.14,10.14,0,0,1,.31,3.45c-.16,1.49-.36,3-.58,4.55l-.34,2.35-.33,2c-.53,3.14.1,6.21.52,9.29.23,1.69.72,3.3.09,5.09a54.92,54.92,0,0,0-1.37,6c-.06.28-.42.56-.71.72-.64.35-1.32.62-2.09,1L5.5,55a5.07,5.07,0,0,0-1.64-1.62A31.71,31.71,0,0,0,0,52.14L12.46,68.83c-.24,0-.71,0-1.17,0a4.11,4.11,0,0,0-1.46.24c-.45.23-1.07.67-1.09,1a1.91,1.91,0,0,0,.88,1.3,10.25,10.25,0,0,0,1.9.79c-.12.69-.45,1.39-.26,1.9s.9.72,1.3,1a10.26,10.26,0,0,1-1.35,0c-.9-.1-1.64.3-1.66,1.1a2.21,2.21,0,0,0,1.11,1.54c1.45.77,3,1.34,4.53,2a6.85,6.85,0,0,1,1.06.84,5.65,5.65,0,0,1-1.19,1c-1.61.73-3.29,1.32-4.88,2.1a1.82,1.82,0,0,0-.93,1.34c0,.43.66,1,1.14,1.16,1.37.44,2.8.7,4.2,1,.58.13,1,.34.91,1.07-.13,1.75-.15,3.5-.25,5.26a1.89,1.89,0,0,1-.24,1L8.7,103c-.65.86-1.48,1.67-1.06,2.93.22.65.39,1.31.63,2.12l7.18-9.55c.39,2.23.73,4.22,1.07,6.21a4,4,0,0,1,.07,1.54,54.7,54.7,0,0,0-1.66,18.16A50.89,50.89,0,0,0,17.16,136a5.87,5.87,0,0,1,0,3.86,35.81,35.81,0,0,0-1.81,11.61,74.66,74.66,0,0,0,.74,9,9.49,9.49,0,0,1-.61,4.8,25.38,25.38,0,0,0-1.27,11.92c-2-1.93-4.09-3.68-5.91-5.64-1.64-1.77-3.7-2-5.94-2.12a20.72,20.72,0,0,0,2.1,2.19c2.68,2.56,5.22,5.28,8.08,7.63A11,11,0,0,1,16,184.58c.32,1,.74,2,1.14,3-2.49.58-4.82,1.14-7.17,1.63-.73.16-1.38.42-1.3,1.19a6,6,0,0,0,.87,1.76c-.19.09-.63.31-1.06.56a1.29,1.29,0,0,0-.25,2.08,5.32,5.32,0,0,0,3.22,1.82,10.74,10.74,0,0,1,2.1.58c-1.35.61-2.52,1.06-3.6,1.67-.44.25-1,.86-1,1.27s.62,1,1.08,1.23a11.35,11.35,0,0,0,2.13.69,10,10,0,0,0-2,.59c-.5.26-1.23.84-1.18,1.18a2,2,0,0,0,1.19,1.29,45.42,45.42,0,0,0,4.44,1l-12.23,6.7c2.75,1.4,3.13,1.42,4.88.39.64-.38,1.29-.76,2-1.12L16.83,208l.38.19c-.27.94-.48,1.92-.84,2.83a22.91,22.91,0,0,0-1.91,8.16c0,2.47.85,4.69,1.53,7a2.43,2.43,0,0,1-.2,1.8,10,10,0,0,0-1.38,8.41c.8,3,1.77,5.91,2.63,8.88a2.52,2.52,0,0,1,.06,1.41,29.64,29.64,0,0,0-1.59,9.18c0,.77,0,1.55,0,2.32l.06,1.16.08,1.22c.13,1.88.33,3.72.56,5.51a15.56,15.56,0,0,1-.06,5.92,28.8,28.8,0,0,0-.18,7.67l2.44-2A4.37,4.37,0,0,0,20.53,281c1.22.76,2.6.58,3.93.72l-.21.35L22.62,282a5.87,5.87,0,0,1-1.61-.2,4.54,4.54,0,0,1-2.57-2A3.55,3.55,0,0,1,18,278l-2,1.66a3.75,3.75,0,0,0,.17,1.3,5.42,5.42,0,0,0,2.34,2.62,7.19,7.19,0,0,0,3.3.73,24.43,24.43,0,0,0,7.42-.68,10.14,10.14,0,0,1,3.45-.31c1.49.16,3,.36,4.55.58l2.35.34,2,.33c3.14.53,6.21-.1,9.29-.52,1.69-.23,3.3-.72,5.09-.09a54.92,54.92,0,0,0,6,1.37c.28.06.56.42.72.71.35.64.62,1.32,1,2.09L55,294.5a5.07,5.07,0,0,0-1.62,1.64A31.71,31.71,0,0,0,52.14,300l16.69-12.47c0,.25,0,.72,0,1.18a4.11,4.11,0,0,0,.24,1.46c.23.45.67,1.07,1,1.09a1.91,1.91,0,0,0,1.3-.88,10.25,10.25,0,0,0,.79-1.9c.69.12,1.39.45,1.9.26s.72-.9,1-1.3a10.26,10.26,0,0,1,0,1.35c-.1.9.3,1.64,1.1,1.66a2.21,2.21,0,0,0,1.54-1.11c.77-1.45,1.34-3,2-4.53a6.85,6.85,0,0,1,.84-1.06,5.86,5.86,0,0,1,1,1.18c.73,1.62,1.32,3.3,2.1,4.89a1.82,1.82,0,0,0,1.34.93c.43,0,1-.66,1.16-1.14.44-1.37.7-2.8,1-4.2.13-.58.34-1,1.07-.91,1.75.13,3.5.15,5.26.25a1.89,1.89,0,0,1,1,.24L103,291.3c.86.65,1.67,1.48,2.93,1.06.65-.22,1.31-.39,2.12-.63l-9.55-7.18,6.21-1.07a4,4,0,0,1,1.54-.07,54.7,54.7,0,0,0,18.16,1.66A51.44,51.44,0,0,0,136,282.84a5.87,5.87,0,0,1,3.86,0,35.81,35.81,0,0,0,11.61,1.81,74.66,74.66,0,0,0,9-.74,9.49,9.49,0,0,1,4.8.61,25.38,25.38,0,0,0,11.92,1.27c-1.93,2-3.68,4.09-5.64,5.91-1.77,1.64-2,3.7-2.12,5.94a20.72,20.72,0,0,0,2.19-2.1c2.56-2.68,5.28-5.22,7.63-8.08a11,11,0,0,1,5.34-3.52c1-.32,2-.74,3-1.14.58,2.49,1.14,4.82,1.63,7.17.16.73.42,1.38,1.19,1.3a6,6,0,0,0,1.76-.87c.09.19.31.63.56,1.06a1.29,1.29,0,0,0,2.08.25,5.32,5.32,0,0,0,1.82-3.22,10.56,10.56,0,0,1,.58-2.1c.61,1.35,1.06,2.52,1.67,3.6.25.44.86,1,1.27,1s1-.62,1.23-1.08a11.6,11.6,0,0,0,.69-2.13,10,10,0,0,0,.59,2c.26.5.84,1.23,1.18,1.18a2,2,0,0,0,1.29-1.19,45.42,45.42,0,0,0,1-4.44l6.7,12.23c1.4-2.75,1.42-3.13.39-4.88-.38-.64-.76-1.29-1.12-1.95L208,283.17l.19-.38c.94.27,1.92.48,2.83.84a22.91,22.91,0,0,0,8.16,1.91c2.47,0,4.69-.85,7-1.53a2.43,2.43,0,0,1,1.8.2,10,10,0,0,0,8.41,1.38c3-.8,5.91-1.77,8.88-2.63a2.52,2.52,0,0,1,1.41-.06,29.64,29.64,0,0,0,9.18,1.59c.77,0,1.55,0,2.32,0l1.16-.06,1.22-.08c1.88-.13,3.72-.33,5.51-.56a15.56,15.56,0,0,1,5.92.06,28.8,28.8,0,0,0,7.67.18,3.75,3.75,0,0,0,1.3-.17,5.42,5.42,0,0,0,2.62-2.34,7.19,7.19,0,0,0,.73-3.3,24.43,24.43,0,0,0-.68-7.42,10.14,10.14,0,0,1-.31-3.45c.16-1.49.36-3,.58-4.55l.34-2.35.33-2c.53-3.14-.1-6.21-.52-9.29-.23-1.69-.72-3.3-.09-5.09a54.92,54.92,0,0,0,1.37-6c.06-.28.42-.56.71-.72.64-.35,1.32-.62,2.09-1L294.5,245a5.17,5.17,0,0,0,1.64,1.62,31.71,31.71,0,0,0,3.86,1.22ZM252.66,18.23h7.9l0,.15h-7.88Zm-31.53,1.6c.05-.26.62-.43,1-.64l.34.28-.89,2.58-.44-.07A11.85,11.85,0,0,1,221.13,19.83Zm-3.11.4-1.37,3.25L213.49,21ZM201.85,18l3.77.26,0,.45-3.78-.27Zm-13.25.17c-7,1.92-13.82,1.65-20.67.73A47.9,47.9,0,0,1,188.6,18.17ZM156.5,19a33.34,33.34,0,0,1-13.37-.77C147.61,18.14,152.11,17.65,156.5,19ZM132,17.49c-4.36.47-8.45,1.18-12.64.55C120.68,16.41,127.79,16.08,132,17.49Zm-46.94.39H77.33C80.7,16.92,83.74,17.05,85.08,17.88ZM69.53,17.6A16.94,16.94,0,0,1,59,18.72C61.27,17.31,67.75,15.76,69.53,17.6Zm-28.43.5c1,0,2,0,3,0a43.3,43.3,0,0,1,4.81.49,17.82,17.82,0,0,1-5.42.72A30.08,30.08,0,0,1,38,18.65l0-.53ZM18.26,156.87c-.12-4.48-.61-9,.77-13.37A33.34,33.34,0,0,1,18.26,156.87Zm5.22-73.52c-.78,1-1.49,1.94-2.44,3.16-.29-1.63-.52-2.92-.81-4.53Zm-4-5.77,2.58.89-.07.44a11.85,11.85,0,0,1-2.15,0c-.26-.05-.43-.62-.64-1ZM18.23,39.44l.15,0v7.88h-.15Zm0,54.94.45,0-.27,3.78-.44,0Zm-.09,17c1.92,7,1.65,13.82.73,20.67A47.9,47.9,0,0,1,18.17,111.4ZM17.49,168c.47,4.36,1.18,8.45.55,12.64C16.41,179.32,16.08,172.21,17.49,168Zm.39,46.94v7.75C16.92,219.3,17.05,216.26,17.88,214.92Zm-.28,15.55a16.94,16.94,0,0,1,1.12,10.58C17.31,238.73,15.76,232.25,17.6,230.47Zm.5,28.43c0-1,0-2,0-3a43.3,43.3,0,0,1,.49-4.81,17.82,17.82,0,0,1,.72,5.42,29.23,29.23,0,0,1-.69,5.49l-.53,0Zm29.24,22.87h-7.9l0-.15h7.88Zm31.53-1.6c-.05.26-.62.43-1,.64l-.34-.28.89-2.58.44.07A11.85,11.85,0,0,1,78.87,280.17Zm3.11-.4,1.37-3.25L86.51,279ZM98.15,282l-3.77-.26,0-.45,3.78.27Zm13.25-.17c7-1.92,13.82-1.65,20.67-.74A47.75,47.75,0,0,1,111.4,281.83Zm32.1-.86a33.34,33.34,0,0,1,13.37.77C152.39,281.86,147.89,282.35,143.5,281ZM168,282.51c4.36-.47,8.45-1.18,12.64-.55C179.32,283.59,172.21,283.92,168,282.51Zm46.94-.39h7.75C219.3,283.08,216.26,283,214.92,282.12Zm15.55.28a16.94,16.94,0,0,1,10.58-1.12C238.73,282.69,232.25,284.24,230.47,282.4Zm28.43-.5c-1,0-2,0-3,0a43.3,43.3,0,0,1-4.81-.49,17.82,17.82,0,0,1,5.42-.72,29.23,29.23,0,0,1,5.49.69l0,.53ZM282.51,132c-.47-4.36-1.18-8.45-.55-12.64C283.59,120.68,283.92,127.79,282.51,132Zm-.39-46.94V77.33C283.08,80.7,283,83.74,282.12,85.08Zm.28-15.55A16.94,16.94,0,0,1,281.28,59C282.69,61.27,284.24,67.75,282.4,69.53Zm-1.74-26.05a30.08,30.08,0,0,1,.69-5.49l.53,0,0,3.15c0,1,0,2,0,3a43.3,43.3,0,0,1-.49,4.81A17.82,17.82,0,0,1,280.66,43.48Zm1.08,99.65c.12,4.48.61,9-.77,13.37A33.34,33.34,0,0,1,281.74,143.13Zm-5.22,73.52,2.44-3.16c.29,1.63.52,2.92.81,4.53Zm4,5.77-2.58-.89.07-.44a11.85,11.85,0,0,1,2.15,0c.26.05.43.62.64,1Zm1.24,38.14-.15,0v-7.88h.15Zm0-54.94-.45,0,.27-3.78.44,0Zm.09-17c-1.92-7-1.65-13.82-.73-20.67A47.9,47.9,0,0,1,281.83,188.6Z"/></g></g></svg>