<?xml version="1.0" encoding="utf-8"?>
<!-- Generator: Adobe Illustrator 25.4.1, SVG Export Plug-In . SVG Version: 6.00 Build 0)  -->
<svg version="1.1" id="Layer_1" xmlns="http://www.w3.org/2000/svg" xmlns:xlink="http://www.w3.org/1999/xlink" x="0px" y="0px"
	 width="50px" height="50px" viewBox="0 0 50 50" style="enable-background:new 0 0 50 50;" xml:space="preserve">
<style type="text/css">
	.st0{fill:#D6D4D3;}
	.st1{fill:#44273A;}
	.st2{fill-rule:evenodd;clip-rule:evenodd;fill:#FFFFFF;}
	.st3{fill:#FFFFFF;}
</style>
<path class="st0" d="M149.1,190.7v-35.9h9.4v35.9H149.1z"/>
<path class="st0" d="M158.5,154.8v35.9h-9.4v-35.9H158.5 M158.5,148.8h-9.4c-3.3,0-6,2.7-6,6v35.9c0,3.3,2.7,6,6,6h9.4
	c3.3,0,6-2.7,6-6v-35.9C164.5,151.4,161.8,148.8,158.5,148.8L158.5,148.8z"/>
<path class="st0" d="M184.6,174v-15.6h8.5v32.3h-8.5v-6.4l-9.1-14.7v21.2h-8.5v-32.3h8.5L184.6,174z"/>
<path class="st0" d="M193.1,158.4v32.3h-8.5v-6.4l-9.1-14.7v21.2h-8.5v-32.3h8.5l9.1,15.6v-15.6H193.1 M193.1,152.4h-8.5
	c-1.8,0-3.5,0.8-4.6,2.1c-1.1-1.3-2.8-2.1-4.6-2.1h-8.5c-3.3,0-6,2.7-6,6v32.3c0,3.3,2.7,6,6,6h8.5c1.8,0,3.5-0.8,4.6-2.1
	c1.1,1.3,2.7,2.1,4.6,2.1h8.5c3.3,0,6-2.7,6-6v-32.3C199.1,155,196.4,152.4,193.1,152.4L193.1,152.4z"/>
<path class="st0" d="M218.6,174v-15.6h8.5v32.3h-8.5v-6.4l-9.1-14.7v21.2H201v-32.3h8.5L218.6,174z"/>
<path class="st0" d="M227.1,158.4v32.3h-8.5v-6.4l-9.1-14.7v21.2H201v-32.3h8.5l9.1,15.6v-15.6H227.1 M227.1,152.4h-8.5
	c-1.8,0-3.5,0.8-4.6,2.1c-1.1-1.3-2.8-2.1-4.6-2.1H201c-3.3,0-6,2.7-6,6v32.3c0,3.3,2.7,6,6,6h8.5c1.8,0,3.5-0.8,4.6-2.1
	c1.1,1.3,2.7,2.1,4.6,2.1h8.5c3.3,0,6-2.7,6-6v-32.3C233.1,155,230.4,152.4,227.1,152.4L227.1,152.4z"/>
<path class="st0" d="M235.1,190.7v-32.3h21.1v3.9h-12.6v9.8h11.2v3.9h-11.2v10.8h12.6v3.9H235.1z"/>
<path class="st0" d="M256.2,158.4v3.9h-12.6v9.8h11.2v3.9h-11.2v10.8h12.6v3.9h-21.1v-32.3H256.2 M256.2,152.4h-21.1
	c-3.3,0-6,2.7-6,6v32.3c0,3.3,2.7,6,6,6h21.1c3.3,0,6-2.7,6-6v-3.9c0-2.7-1.7-4.9-4.2-5.7c1.7-1.1,2.7-2.9,2.7-5v-3.9
	c0-1.7-0.7-3.3-1.9-4.4c2-1,3.4-3,3.4-5.4v-3.9C262.2,155,259.5,152.4,256.2,152.4L256.2,152.4z"/>
<path class="st0" d="M262.3,158.4h16.6c6.5,0,9.7,1.8,9.7,5.5v8c0,2.8-1.7,4.6-5,5.4l5.9,13.5h-8.1l-5.6-13h-5.1v13h-8.5V158.4z
	 M270.8,173.9h5.6c2.5,0,3.8-0.8,3.8-2.3v-7c0-1.6-1.3-2.3-3.8-2.3h-5.6V173.9z"/>
<path class="st0" d="M278.9,158.4c6.5,0,9.7,1.8,9.7,5.5v8c0,2.8-1.7,4.6-5,5.4l5.9,13.5h-8.1l-5.6-13h-5.1v13h-8.5v-32.3H278.9
	 M270.8,173.9h5.6c2.5,0,3.8-0.8,3.8-2.3v-7c0-1.6-1.3-2.3-3.8-2.3h-5.6V173.9 M278.9,152.4h-16.6c-3.3,0-6,2.7-6,6v32.3
	c0,3.3,2.7,6,6,6h8.5c2.3,0,4.4-1.3,5.4-3.3c1,2,3.1,3.3,5.4,3.3h8.1c2,0,3.9-1,5-2.7c1.1-1.7,1.3-3.8,0.5-5.7l-3.7-8.4
	c2.1-2,3.3-4.8,3.3-8v-8C294.7,160.4,293.1,152.4,278.9,152.4L278.9,152.4z"/>
<path class="st0" d="M296.2,154.8h17.2c7.6,0,11.4,2.1,11.4,6.2v10.7c0,4.1-3.8,6.1-11.3,6.1h-7.9v13h-9.4V154.8z M305.6,173.3h6
	c2.5,0,3.7-0.7,3.7-2.1v-10c0-1.4-1.4-2.1-4.2-2.1h-5.5V173.3z"/>
<path class="st0" d="M313.4,154.8c7.6,0,11.4,2.1,11.4,6.2v10.7c0,4.1-3.8,6.1-11.3,6.1h-7.9v13h-9.4v-35.9H313.4 M305.6,173.3h6
	c2.5,0,3.7-0.7,3.7-2.1v-10c0-1.4-1.4-2.1-4.2-2.1h-5.5V173.3 M313.4,148.8h-17.2c-3.3,0-6,2.7-6,6v35.9c0,3.3,2.7,6,6,6h9.4
	c3.3,0,6-2.7,6-6v-7h1.9c15.6,0,17.3-8.5,17.3-12.1v-10.7C330.8,157.3,329.1,148.8,313.4,148.8L313.4,148.8z"/>
<path class="st0" d="M339.9,190.7h-8.5v-26.8c0-3.7,3.4-5.5,10.2-5.5h6.4c6.8,0,10.2,1.8,10.2,5.5v26.8h-8.5v-11.8h-9.7V190.7z
	 M349.6,174.9v-10.8c0-1.3-1.2-1.9-3.7-1.9h-2.3c-2.5,0-3.7,0.6-3.7,1.9v10.8H349.6z"/>
<path class="st0" d="M347.9,158.4c6.8,0,10.2,1.8,10.2,5.5v26.8h-8.5v-11.8h-9.7v11.8h-8.5v-26.8c0-3.7,3.4-5.5,10.2-5.5H347.9
	 M339.9,174.9h9.7v-10.8c0-1.3-1.2-1.9-3.7-1.9h-2.3c-2.5,0-3.7,0.6-3.7,1.9V174.9 M347.9,152.4h-6.4c-14.6,0-16.2,8.1-16.2,11.5
	v26.8c0,3.3,2.7,6,6,6h8.5c2,0,3.8-1,4.9-2.5c1.1,1.5,2.9,2.5,4.9,2.5h8.5c3.3,0,6-2.7,6-6v-26.8
	C364.1,160.4,362.6,152.4,347.9,152.4L347.9,152.4z"/>
<path class="st0" d="M379.2,162.3v28.4h-8.5v-28.4h-8.1v-3.9h24.8v3.9H379.2z"/>
<path class="st0" d="M387.3,158.4v3.9h-8.1v28.4h-8.5v-28.4h-8.1v-3.9H387.3 M387.3,152.4h-24.8c-3.3,0-6,2.7-6,6v3.9
	c0,3.3,2.7,6,6,6h2.1v22.4c0,3.3,2.7,6,6,6h8.5c3.3,0,6-2.7,6-6v-22.4h2.1c3.3,0,6-2.7,6-6v-3.9C393.3,155,390.7,152.4,387.3,152.4
	L387.3,152.4z"/>
<path class="st0" d="M411.2,190.7V176h-10.4v14.7h-8.5v-32.3h8.5v13.7h10.4v-13.7h8.5v32.3H411.2z"/>
<path class="st0" d="M419.6,158.4v32.3h-8.5V176h-10.4v14.7h-8.5v-32.3h8.5v13.7h10.4v-13.7H419.6 M419.6,152.4h-8.5
	c-2.2,0-4.2,1.2-5.2,3c-1-1.8-3-3-5.2-3h-8.5c-3.3,0-6,2.7-6,6v32.3c0,3.3,2.7,6,6,6h8.5c2.2,0,4.2-1.2,5.2-3c1,1.8,3,3,5.2,3h8.5
	c3.3,0,6-2.7,6-6v-32.3C425.6,155,423,152.4,419.6,152.4L419.6,152.4z"/>
<path class="st0" d="M443.9,167v-2.8c0-1.3-1.2-1.9-3.7-1.9h-1.3c-2.4,0-3.6,0.6-3.6,1.9v5.4c0,0.6,0.2,1,0.7,1.2
	c0.5,0.2,1.2,0.5,2.3,0.8l8.1,2.2c1.8,0.5,3,0.9,3.8,1.2c0.7,0.3,1.3,0.6,1.7,1c0.4,0.4,0.6,1.2,0.6,2.3v6.9c0,3.6-3.4,5.4-10.3,5.4
	h-5.2c-6.8,0-10.2-2-10.2-5.9v-1.6h8.5v1.8c0,1.3,1.3,1.9,3.8,1.9h1.5c2.2,0,3.4-0.6,3.4-1.9v-5.5c0-0.6-0.2-1-0.7-1.2
	c-0.5-0.2-1.2-0.5-2.3-0.8l-8.1-2.3c-1.8-0.5-3.1-0.9-3.9-1.2c-0.8-0.3-1.4-0.8-1.7-1.3c-0.4-0.5-0.5-1.2-0.5-2v-6.6
	c0-3.7,3.4-5.5,10.2-5.5h5.3c6.8,0,10.2,1.8,10.2,5.5v3.2H443.9z"/>
<path class="st0" d="M442.2,158.4c6.8,0,10.2,1.8,10.2,5.5v3.2h-8.5v-2.8c0-1.3-1.2-1.9-3.7-1.9h-1.3c-2.4,0-3.6,0.6-3.6,1.9v5.4
	c0,0.6,0.2,1,0.7,1.2c0.5,0.2,1.2,0.5,2.3,0.8l8.1,2.2c1.8,0.5,3,0.9,3.8,1.2c0.7,0.3,1.3,0.6,1.7,1c0.4,0.4,0.6,1.2,0.6,2.3v6.9
	c0,3.6-3.4,5.4-10.3,5.4h-5.2c-6.8,0-10.2-2-10.2-5.9v-1.6h8.5v1.8c0,1.3,1.3,1.9,3.8,1.9h1.5c2.2,0,3.4-0.6,3.4-1.9v-5.5
	c0-0.6-0.2-1-0.7-1.2c-0.5-0.2-1.2-0.5-2.3-0.8l-8.1-2.3c-1.8-0.5-3.1-0.9-3.9-1.2c-0.8-0.3-1.4-0.8-1.7-1.3c-0.4-0.5-0.5-1.2-0.5-2
	v-6.6c0-3.7,3.4-5.5,10.2-5.5H442.2 M442.2,152.4h-5.3c-14.6,0-16.2,8.1-16.2,11.5v6.6c0,2.1,0.5,3.9,1.6,5.4c0.5,0.7,1,1.3,1.7,1.9
	c-1.9,1-3.3,3-3.3,5.3v1.6c0,3.6,1.6,11.9,16.2,11.9h5.2c14.7,0,16.3-8,16.3-11.4v-6.9c0-2.8-0.8-5-2.3-6.5c1.4-1.1,2.3-2.8,2.3-4.8
	v-3.2C458.4,160.4,456.8,152.4,442.2,152.4L442.2,152.4z"/>
<path class="st0" d="M459.9,154.8h17.2c7.6,0,11.4,2.1,11.4,6.2v10.7c0,4.1-3.8,6.1-11.3,6.1h-7.9v13h-9.4V154.8z M469.4,173.3h6
	c2.5,0,3.7-0.7,3.7-2.1v-10c0-1.4-1.4-2.1-4.2-2.1h-5.5V173.3z"/>
<path class="st0" d="M477.1,154.8c7.6,0,11.4,2.1,11.4,6.2v10.7c0,4.1-3.8,6.1-11.3,6.1h-7.9v13h-9.4v-35.9H477.1 M469.4,173.3h6
	c2.5,0,3.7-0.7,3.7-2.1v-10c0-1.4-1.4-2.1-4.2-2.1h-5.5V173.3 M477.1,148.8h-17.2c-3.3,0-6,2.7-6,6v35.9c0,3.3,2.7,6,6,6h9.4
	c3.3,0,6-2.7,6-6v-7h1.9c15.6,0,17.3-8.5,17.3-12.1v-10.7C494.5,157.3,492.9,148.8,477.1,148.8L477.1,148.8z"/>
<path class="st0" d="M503.6,190.7h-8.5v-26.8c0-3.7,3.4-5.5,10.2-5.5h6.4c6.8,0,10.2,1.8,10.2,5.5v26.8h-8.5v-11.8h-9.7V190.7z
	 M513.4,174.9v-10.8c0-1.3-1.2-1.9-3.7-1.9h-2.3c-2.5,0-3.7,0.6-3.7,1.9v10.8H513.4z"/>
<path class="st0" d="M511.7,158.4c6.8,0,10.2,1.8,10.2,5.5v26.8h-8.5v-11.8h-9.7v11.8h-8.5v-26.8c0-3.7,3.4-5.5,10.2-5.5H511.7
	 M503.6,174.9h9.7v-10.8c0-1.3-1.2-1.9-3.7-1.9h-2.3c-2.5,0-3.7,0.6-3.7,1.9V174.9 M511.7,152.4h-6.4c-14.6,0-16.2,8.1-16.2,11.5
	v26.8c0,3.3,2.7,6,6,6h8.5c2,0,3.8-1,4.9-2.5c1.1,1.5,2.9,2.5,4.9,2.5h8.5c3.3,0,6-2.7,6-6v-26.8
	C527.9,160.4,526.3,152.4,511.7,152.4L511.7,152.4z"/>
<path class="st0" d="M542.9,162.3v28.4h-8.5v-28.4h-8.1v-3.9h24.8v3.9H542.9z"/>
<path class="st0" d="M551.1,158.4v3.9h-8.1v28.4h-8.5v-28.4h-8.1v-3.9H551.1 M551.1,152.4h-24.8c-3.3,0-6,2.7-6,6v3.9
	c0,3.3,2.7,6,6,6h2.1v22.4c0,3.3,2.7,6,6,6h8.5c3.3,0,6-2.7,6-6v-22.4h2.1c3.3,0,6-2.7,6-6v-3.9C557.1,155,554.4,152.4,551.1,152.4
	L551.1,152.4z"/>
<path class="st0" d="M581.4,183.1v2.1c0,3.7-3.4,5.5-10.2,5.5h-5.5c-6.8,0-10.2-1.8-10.2-5.5v-21.3c0-3.7,3.4-5.5,10.2-5.5h5.5
	c6.8,0,10.2,1.8,10.2,5.5v3.6h-8.5v-3.3c0-1.3-1.3-1.9-3.8-1.9h-1.7c-2.2,0-3.4,0.6-3.4,1.9v20.7c0,1.3,1.1,1.9,3.4,1.9h2.1
	c2.2,0,3.4-0.6,3.4-1.9v-1.8H581.4z"/>
<path class="st0" d="M571.2,158.4c6.8,0,10.2,1.8,10.2,5.5v3.6h-8.5v-3.3c0-1.3-1.3-1.9-3.8-1.9h-1.7c-2.2,0-3.4,0.6-3.4,1.9v20.7
	c0,1.3,1.1,1.9,3.4,1.9h2.1c2.2,0,3.4-0.6,3.4-1.9v-1.8h8.5v2.1c0,3.7-3.4,5.5-10.2,5.5h-5.5c-6.8,0-10.2-1.8-10.2-5.5v-21.3
	c0-3.7,3.4-5.5,10.2-5.5H571.2 M571.2,152.4h-5.5c-14.6,0-16.2,8-16.2,11.5v21.3c0,3.5,1.6,11.5,16.2,11.5h5.5
	c14.6,0,16.2-8,16.2-11.5v-2.1c0-3.3-2.7-6-6-6h-8.5c-1,0-2,0.3-2.9,0.7v-5.1c0.8,0.5,1.8,0.7,2.9,0.7h8.5c3.3,0,6-2.7,6-6v-3.6
	C587.4,160.4,585.8,152.4,571.2,152.4L571.2,152.4z"/>
<path class="st0" d="M606.9,190.7V176h-10.4v14.7H588v-32.3h8.5v13.7h10.4v-13.7h8.5v32.3H606.9z"/>
<path class="st0" d="M615.4,158.4v32.3h-8.5V176h-10.4v14.7H588v-32.3h8.5v13.7h10.4v-13.7H615.4 M615.4,152.4h-8.5
	c-2.2,0-4.2,1.2-5.2,3c-1-1.8-3-3-5.2-3H588c-3.3,0-6,2.7-6,6v32.3c0,3.3,2.7,6,6,6h8.5c2.2,0,4.2-1.2,5.2-3c1,1.8,3,3,5.2,3h8.5
	c3.3,0,6-2.7,6-6v-32.3C621.4,155,618.8,152.4,615.4,152.4L615.4,152.4z"/>
<path class="st0" d="M623.4,190.7v-32.3h21.1v3.9h-12.6v9.8h11.2v3.9h-11.2v10.8h12.6v3.9H623.4z"/>
<path class="st0" d="M644.5,158.4v3.9h-12.6v9.8h11.2v3.9h-11.2v10.8h12.6v3.9h-21.1v-32.3H644.5 M644.5,152.4h-21.1
	c-3.3,0-6,2.7-6,6v32.3c0,3.3,2.7,6,6,6h21.1c3.3,0,6-2.7,6-6v-3.9c0-2.7-1.7-4.9-4.2-5.7c1.7-1.1,2.7-2.9,2.7-5v-3.9
	c0-1.7-0.7-3.3-1.9-4.4c2-1,3.4-3,3.4-5.4v-3.9C650.5,155,647.8,152.4,644.5,152.4L644.5,152.4z"/>
<path class="st0" d="M666.9,167v-2.8c0-1.3-1.2-1.9-3.7-1.9h-1.3c-2.4,0-3.6,0.6-3.6,1.9v5.4c0,0.6,0.2,1,0.7,1.2
	c0.5,0.2,1.2,0.5,2.3,0.8l8.1,2.2c1.8,0.5,3,0.9,3.8,1.2c0.7,0.3,1.3,0.6,1.7,1c0.4,0.4,0.6,1.2,0.6,2.3v6.9c0,3.6-3.4,5.4-10.3,5.4
	h-5.2c-6.8,0-10.2-2-10.2-5.9v-1.6h8.5v1.8c0,1.3,1.3,1.9,3.8,1.9h1.5c2.2,0,3.4-0.6,3.4-1.9v-5.5c0-0.6-0.2-1-0.7-1.2
	c-0.5-0.2-1.2-0.5-2.3-0.8l-8.1-2.3c-1.8-0.5-3.1-0.9-3.9-1.2s-1.4-0.8-1.7-1.3c-0.4-0.5-0.5-1.2-0.5-2v-6.6c0-3.7,3.4-5.5,10.2-5.5
	h5.3c6.8,0,10.2,1.8,10.2,5.5v3.2H666.9z"/>
<path class="st0" d="M665.2,158.4c6.8,0,10.2,1.8,10.2,5.5v3.2h-8.5v-2.8c0-1.3-1.2-1.9-3.7-1.9h-1.3c-2.4,0-3.6,0.6-3.6,1.9v5.4
	c0,0.6,0.2,1,0.7,1.2c0.5,0.2,1.2,0.5,2.3,0.8l8.1,2.2c1.8,0.5,3,0.9,3.8,1.2c0.7,0.3,1.3,0.6,1.7,1c0.4,0.4,0.6,1.2,0.6,2.3v6.9
	c0,3.6-3.4,5.4-10.3,5.4h-5.2c-6.8,0-10.2-2-10.2-5.9v-1.6h8.5v1.8c0,1.3,1.3,1.9,3.8,1.9h1.5c2.2,0,3.4-0.6,3.4-1.9v-5.5
	c0-0.6-0.2-1-0.7-1.2c-0.5-0.2-1.2-0.5-2.3-0.8l-8.1-2.3c-1.8-0.5-3.1-0.9-3.9-1.2s-1.4-0.8-1.7-1.3c-0.4-0.5-0.5-1.2-0.5-2v-6.6
	c0-3.7,3.4-5.5,10.2-5.5H665.2 M665.2,152.4h-5.3c-14.6,0-16.2,8.1-16.2,11.5v6.6c0,2.1,0.5,3.9,1.6,5.4c0.5,0.7,1,1.3,1.7,1.9
	c-1.9,1-3.2,3-3.2,5.3v1.6c0,3.6,1.6,11.9,16.2,11.9h5.2c14.7,0,16.3-8,16.3-11.4v-6.9c0-2.8-0.8-5-2.3-6.5c1.4-1.1,2.3-2.8,2.3-4.8
	v-3.2C681.4,160.4,679.8,152.4,665.2,152.4L665.2,152.4z"/>
<path class="st0" d="M564.7,244.6v5.6h-9.2v-5.6H564.7z"/>
<path class="st0" d="M564.7,244.6v5.6h-9.2v-5.6H564.7 M564.7,239.1h-9.2c-3,0-5.5,2.5-5.5,5.5v5.6c0,3,2.5,5.5,5.5,5.5h9.2
	c3,0,5.5-2.5,5.5-5.5v-5.6C570.2,241.6,567.7,239.1,564.7,239.1L564.7,239.1z"/>
<path class="st0" d="M597.4,242.5v2.1c0,3.7-3.5,5.6-10.4,5.6h-5.6c-6.9,0-10.4-1.9-10.4-5.6v-21.8c0-3.7,3.5-5.6,10.4-5.6h5.6
	c6.9,0,10.4,1.9,10.4,5.6v3.7h-8.7v-3.4c0-1.3-1.3-1.9-3.9-1.9h-1.7c-2.3,0-3.4,0.6-3.4,1.9v21.1c0,1.3,1.1,1.9,3.4,1.9h2.2
	c2.3,0,3.4-0.6,3.4-1.9v-1.8H597.4z"/>
<path class="st0" d="M587,217.2c6.9,0,10.4,1.9,10.4,5.6v3.7h-8.7v-3.4c0-1.3-1.3-1.9-3.9-1.9h-1.7c-2.3,0-3.4,0.6-3.4,1.9v21.1
	c0,1.3,1.1,1.9,3.4,1.9h2.2c2.3,0,3.4-0.6,3.4-1.9v-1.8h8.7v2.1c0,3.7-3.5,5.6-10.4,5.6h-5.6c-6.9,0-10.4-1.9-10.4-5.6v-21.8
	c0-3.7,3.5-5.6,10.4-5.6H587 M587,211.7h-5.6c-14.4,0-15.9,7.8-15.9,11.1v21.8c0,3.3,1.5,11.1,15.9,11.1h5.6
	c14.4,0,15.9-7.8,15.9-11.1v-2.1c0-3-2.5-5.5-5.5-5.5h-8.7c-1.3,0-2.6,0.5-3.5,1.3v-7.5c1,0.8,2.2,1.3,3.5,1.3h8.7
	c3,0,5.5-2.5,5.5-5.5v-3.7C602.9,219.5,601.3,211.7,587,211.7L587,211.7z M582.6,240.7C582.6,240.7,582.6,240.7,582.6,240.7
	L582.6,240.7L582.6,240.7z"/>
<path class="st0" d="M614.2,250.2c-7,0-10.5-1.9-10.5-5.6v-21.7c0-3.8,3.5-5.6,10.4-5.6h8.3c6.9,0,10.4,1.9,10.4,5.6v21.7
	c0,3.7-3.5,5.6-10.5,5.6H614.2z M616.3,246.2h4.4c2.3,0,3.4-0.6,3.4-1.9v-21.1c0-1.3-1.3-1.9-3.9-1.9h-4.1c-2.5,0-3.8,0.6-3.8,1.9
	v21.1C612.4,245.6,613.7,246.2,616.3,246.2z"/>
<path class="st0" d="M622.4,217.2c6.9,0,10.4,1.9,10.4,5.6v21.7c0,3.7-3.5,5.6-10.5,5.6h-8.1c-7,0-10.5-1.9-10.5-5.6v-21.7
	c0-3.8,3.5-5.6,10.4-5.6H622.4 M616.3,246.2h4.4c2.3,0,3.4-0.6,3.4-1.9v-21.1c0-1.3-1.3-1.9-3.9-1.9h-4.1c-2.5,0-3.8,0.6-3.8,1.9
	v21.1C612.4,245.6,613.7,246.2,616.3,246.2 M622.4,211.7h-8.3c-14.4,0-15.9,7.8-15.9,11.2v21.7c0,3.3,1.6,11.1,16,11.1h8.1
	c14.4,0,16-7.8,16-11.1v-21.7C638.3,219.5,636.8,211.7,622.4,211.7L622.4,211.7z M617.9,226.7h0.7v14h-0.7V226.7L617.9,226.7z"/>
<path class="st0" d="M658.1,236.6l8-19.4h9.6v33H667l0.9-21.6l-6.5,15.6h-6.7l-6.5-15.6l0.9,21.6h-8.7v-33h9.6L658.1,236.6z"/>
<path class="st0" d="M675.7,217.2v33H667l0.9-21.6l-6.5,15.6h-6.7l-6.5-15.6l0.9,21.6h-8.7v-33h9.6l8,19.4l8-19.4H675.7
	 M675.7,211.7h-9.6c-2.2,0-4.2,1.3-5.1,3.4l-3,7.1l-3-7.1c-0.9-2.1-2.9-3.4-5.1-3.4h-9.6c-3,0-5.5,2.5-5.5,5.5v33
	c0,3,2.5,5.5,5.5,5.5h8.7c1.5,0,2.9-0.6,4-1.7c1-1.1,1.6-2.5,1.5-4l0-0.2c0,0,0.1,0,0.1,0h6.7c0,0,0.1,0,0.1,0l0,0.2
	c-0.1,1.5,0.5,3,1.5,4c1,1.1,2.5,1.7,4,1.7h8.7c3,0,5.5-2.5,5.5-5.5v-33C681.2,214.2,678.8,211.7,675.7,211.7L675.7,211.7z"/>
<path class="st0" d="M58.1,191.7c-10.9,0-19.9-8.9-19.9-19.8c0-11,8.8-19.9,19.8-19.9c11,0,19.9,8.9,19.9,19.9
	C78,182.8,69.1,191.7,58.1,191.7z"/>
<path class="st0" d="M58.1,152c11,0,19.8,8.9,19.9,19.9c0,10.9-8.9,19.8-19.8,19.8c0,0,0,0,0,0c-10.9,0-19.8-8.9-19.8-19.8
	C38.2,160.9,47.1,152,58.1,152C58.1,152,58.1,152,58.1,152 M58.1,147.8L58.1,147.8C58.1,147.8,58.1,147.8,58.1,147.8
	c-13.3,0-24,10.8-24,24.1c0,13.2,10.8,23.9,24,23.9c13.3,0,24-10.8,24-24C82.1,158.6,71.3,147.8,58.1,147.8L58.1,147.8z"/>
<path class="st0" d="M111.5,191.7c-10.9,0-19.9-8.9-19.9-19.8c0-11,8.8-19.9,19.8-19.9c11,0,19.9,8.9,19.9,19.9
	C131.3,182.8,122.4,191.7,111.5,191.7z"/>
<path class="st0" d="M111.5,152c11,0,19.8,8.9,19.9,19.9c0,10.9-8.9,19.8-19.8,19.8c0,0,0,0,0,0c-10.9,0-19.8-8.9-19.8-19.8
	C91.6,160.9,100.5,152,111.5,152C111.5,152,111.5,152,111.5,152 M111.5,147.8L111.5,147.8C111.5,147.8,111.4,147.8,111.5,147.8
	c-13.3,0-24,10.8-24,24.1c0,13.2,10.8,23.9,24,23.9c13.3,0,24-10.8,24-24C135.5,158.6,124.7,147.8,111.5,147.8L111.5,147.8z"/>
<path class="st0" d="M24,251.7v-35.9h9.4v35.9H24z"/>
<path class="st0" d="M33.5,215.8v35.9H24v-35.9H33.5 M33.5,209.8H24c-3.3,0-6,2.7-6,6v35.9c0,3.3,2.7,6,6,6h9.4c3.3,0,6-2.7,6-6
	v-35.9C39.5,212.4,36.8,209.8,33.5,209.8L33.5,209.8z"/>
<path class="st0" d="M59.5,235v-15.6H68v32.3h-8.5v-6.4l-9.1-14.7v21.2h-8.5v-32.3h8.5L59.5,235z"/>
<path class="st0" d="M68,219.4v32.3h-8.5v-6.4l-9.1-14.7v21.2h-8.5v-32.3h8.5l9.1,15.6v-15.6H68 M68,213.4h-8.5
	c-1.8,0-3.5,0.8-4.6,2.1c-1.1-1.3-2.8-2.1-4.6-2.1h-8.5c-3.3,0-6,2.7-6,6v32.3c0,3.3,2.7,6,6,6h8.5c1.8,0,3.5-0.8,4.6-2.1
	c1.1,1.3,2.7,2.1,4.6,2.1H68c3.3,0,6-2.7,6-6v-32.3C74,216,71.3,213.4,68,213.4L68,213.4z"/>
<path class="st0" d="M93.6,235v-15.6h8.5v32.3h-8.5v-6.4l-9.1-14.7v21.2H76v-32.3h8.5L93.6,235z"/>
<path class="st0" d="M102.1,219.4v32.3h-8.5v-6.4l-9.1-14.7v21.2H76v-32.3h8.5l9.1,15.6v-15.6H102.1 M102.1,213.4h-8.5
	c-1.8,0-3.5,0.8-4.6,2.1c-1.1-1.3-2.8-2.1-4.6-2.1H76c-3.3,0-6,2.7-6,6v32.3c0,3.3,2.7,6,6,6h8.5c1.8,0,3.5-0.8,4.6-2.1
	c1.1,1.3,2.7,2.1,4.6,2.1h8.5c3.3,0,6-2.7,6-6v-32.3C108.1,216,105.4,213.4,102.1,213.4L102.1,213.4z"/>
<path class="st0" d="M110,251.7v-32.3h21.1v3.9h-12.6v9.8h11.2v3.9h-11.2v10.8h12.6v3.9H110z"/>
<path class="st0" d="M131.1,219.4v3.9h-12.6v9.8h11.2v3.9h-11.2v10.8h12.6v3.9H110v-32.3H131.1 M131.1,213.4H110c-3.3,0-6,2.7-6,6
	v32.3c0,3.3,2.7,6,6,6h21.1c3.3,0,6-2.7,6-6v-3.9c0-2.7-1.7-4.9-4.2-5.7c1.7-1.1,2.7-2.9,2.7-5v-3.9c0-1.7-0.7-3.3-1.9-4.4
	c2-1,3.4-3,3.4-5.4v-3.9C137.1,216,134.4,213.4,131.1,213.4L131.1,213.4z"/>
<path class="st0" d="M137.2,219.4h16.6c6.5,0,9.7,1.8,9.7,5.5v8c0,2.8-1.7,4.6-5,5.4l5.9,13.5h-8.1l-5.6-13h-5.1v13h-8.5V219.4z
	 M145.7,234.9h5.6c2.5,0,3.8-0.8,3.8-2.3v-7c0-1.6-1.3-2.3-3.8-2.3h-5.6V234.9z"/>
<path class="st0" d="M153.9,219.4c6.5,0,9.7,1.8,9.7,5.5v8c0,2.8-1.7,4.6-5,5.4l5.9,13.5h-8.1l-5.6-13h-5.1v13h-8.5v-32.3H153.9
	 M145.7,234.9h5.6c2.5,0,3.8-0.8,3.8-2.3v-7c0-1.6-1.3-2.3-3.8-2.3h-5.6V234.9 M153.9,213.4h-16.6c-3.3,0-6,2.7-6,6v32.3
	c0,3.3,2.7,6,6,6h8.5c2.3,0,4.4-1.3,5.4-3.3c1,2,3.1,3.3,5.4,3.3h8.1c2,0,3.9-1,5-2.7c1.1-1.7,1.3-3.8,0.5-5.7l-3.7-8.4
	c2.1-2,3.3-4.8,3.3-8v-8C169.6,221.4,168.1,213.4,153.9,213.4L153.9,213.4z"/>
<path class="st0" d="M171.1,215.8h17.2c7.6,0,11.4,2.1,11.4,6.2v10.7c0,4.1-3.8,6.1-11.3,6.1h-7.9v13h-9.4V215.8z M180.6,234.3h6
	c2.5,0,3.7-0.7,3.7-2.1v-10c0-1.4-1.4-2.1-4.2-2.1h-5.5V234.3z"/>
<path class="st0" d="M188.3,215.8c7.6,0,11.4,2.1,11.4,6.2v10.7c0,4.1-3.8,6.1-11.3,6.1h-7.9v13h-9.4v-35.9H188.3 M180.6,234.3h6
	c2.5,0,3.7-0.7,3.7-2.1v-10c0-1.4-1.4-2.1-4.2-2.1h-5.5V234.3 M188.3,209.8h-17.2c-3.3,0-6,2.7-6,6v35.9c0,3.3,2.7,6,6,6h9.4
	c3.3,0,6-2.7,6-6v-7h1.9c15.6,0,17.3-8.5,17.3-12.1v-10.7C205.7,218.3,204,209.8,188.3,209.8L188.3,209.8z"/>
<path class="st0" d="M214.8,251.7h-8.5v-26.8c0-3.7,3.4-5.5,10.2-5.5h6.4c6.8,0,10.2,1.8,10.2,5.5v26.8h-8.5v-11.8h-9.7V251.7z
	 M224.6,235.9v-10.8c0-1.3-1.2-1.9-3.7-1.9h-2.3c-2.5,0-3.7,0.6-3.7,1.9v10.8H224.6z"/>
<path class="st0" d="M222.9,219.4c6.8,0,10.2,1.8,10.2,5.5v26.8h-8.5v-11.8h-9.7v11.8h-8.5v-26.8c0-3.7,3.4-5.5,10.2-5.5H222.9
	 M214.8,235.9h9.7v-10.8c0-1.3-1.2-1.9-3.7-1.9h-2.3c-2.5,0-3.7,0.6-3.7,1.9V235.9 M222.9,213.4h-6.4c-14.6,0-16.2,8.1-16.2,11.5
	v26.8c0,3.3,2.7,6,6,6h8.5c2,0,3.8-1,4.9-2.5c1.1,1.5,2.9,2.5,4.9,2.5h8.5c3.3,0,6-2.7,6-6v-26.8
	C239.1,221.4,237.5,213.4,222.9,213.4L222.9,213.4z"/>
<path class="st0" d="M254.1,223.3v28.4h-8.5v-28.4h-8.1v-3.9h24.8v3.9H254.1z"/>
<path class="st0" d="M262.3,219.4v3.9h-8.1v28.4h-8.5v-28.4h-8.1v-3.9H262.3 M262.3,213.4h-24.8c-3.3,0-6,2.7-6,6v3.9
	c0,3.3,2.7,6,6,6h2.1v22.4c0,3.3,2.7,6,6,6h8.5c3.3,0,6-2.7,6-6v-22.4h2.1c3.3,0,6-2.7,6-6v-3.9C268.3,216,265.6,213.4,262.3,213.4
	L262.3,213.4z"/>
<path class="st0" d="M286.1,251.7V237h-10.4v14.7h-8.5v-32.3h8.5v13.7h10.4v-13.7h8.5v32.3H286.1z"/>
<path class="st0" d="M294.6,219.4v32.3h-8.5V237h-10.4v14.7h-8.5v-32.3h8.5v13.7h10.4v-13.7H294.6 M294.6,213.4h-8.5
	c-2.2,0-4.2,1.2-5.2,3c-1-1.8-3-3-5.2-3h-8.5c-3.3,0-6,2.7-6,6v32.3c0,3.3,2.7,6,6,6h8.5c2.2,0,4.2-1.2,5.2-3c1,1.8,3,3,5.2,3h8.5
	c3.3,0,6-2.7,6-6v-32.3C300.6,216,297.9,213.4,294.6,213.4L294.6,213.4z"/>
<path class="st0" d="M318.8,228v-2.8c0-1.3-1.2-1.9-3.7-1.9h-1.3c-2.4,0-3.6,0.6-3.6,1.9v5.4c0,0.6,0.2,1,0.7,1.2
	c0.5,0.2,1.2,0.5,2.3,0.8l8.1,2.2c1.8,0.5,3,0.9,3.8,1.2c0.7,0.3,1.3,0.6,1.7,1c0.4,0.4,0.6,1.2,0.6,2.3v6.9c0,3.6-3.4,5.4-10.3,5.4
	h-5.2c-6.8,0-10.2-2-10.2-5.9v-1.6h8.5v1.8c0,1.3,1.3,1.9,3.8,1.9h1.5c2.2,0,3.4-0.6,3.4-1.9v-5.5c0-0.6-0.2-1-0.7-1.2
	c-0.5-0.2-1.2-0.5-2.3-0.8l-8.1-2.3c-1.8-0.5-3.1-0.9-3.9-1.2c-0.8-0.3-1.4-0.8-1.7-1.3c-0.4-0.5-0.5-1.2-0.5-2v-6.6
	c0-3.7,3.4-5.5,10.2-5.5h5.3c6.8,0,10.2,1.8,10.2,5.5v3.2H318.8z"/>
<path class="st0" d="M317.2,219.4c6.8,0,10.2,1.8,10.2,5.5v3.2h-8.5v-2.8c0-1.3-1.2-1.9-3.7-1.9h-1.3c-2.4,0-3.6,0.6-3.6,1.9v5.4
	c0,0.6,0.2,1,0.7,1.2c0.5,0.2,1.2,0.5,2.3,0.8l8.1,2.2c1.8,0.5,3,0.9,3.8,1.2c0.7,0.3,1.3,0.6,1.7,1c0.4,0.4,0.6,1.2,0.6,2.3v6.9
	c0,3.6-3.4,5.4-10.3,5.4h-5.2c-6.8,0-10.2-2-10.2-5.9v-1.6h8.5v1.8c0,1.3,1.3,1.9,3.8,1.9h1.5c2.2,0,3.4-0.6,3.4-1.9v-5.5
	c0-0.6-0.2-1-0.7-1.2c-0.5-0.2-1.2-0.5-2.3-0.8l-8.1-2.3c-1.8-0.5-3.1-0.9-3.9-1.2c-0.8-0.3-1.4-0.8-1.7-1.3c-0.4-0.5-0.5-1.2-0.5-2
	v-6.6c0-3.7,3.4-5.5,10.2-5.5H317.2 M317.2,213.4h-5.3c-14.6,0-16.2,8.1-16.2,11.5v6.6c0,2.1,0.5,3.9,1.6,5.4c0.5,0.7,1,1.3,1.7,1.9
	c-1.9,1-3.3,3-3.3,5.3v1.6c0,3.6,1.6,11.9,16.2,11.9h5.2c14.7,0,16.3-8,16.3-11.4v-6.9c0-2.8-0.8-5-2.3-6.5c1.4-1.1,2.3-2.8,2.3-4.8
	v-3.2C333.3,221.4,331.8,213.4,317.2,213.4L317.2,213.4z"/>
<path class="st0" d="M334.9,215.8h17.2c7.6,0,11.4,2.1,11.4,6.2v10.7c0,4.1-3.8,6.1-11.3,6.1h-7.9v13h-9.4V215.8z M344.3,234.3h6
	c2.5,0,3.7-0.7,3.7-2.1v-10c0-1.4-1.4-2.1-4.2-2.1h-5.5V234.3z"/>
<path class="st0" d="M352.1,215.8c7.6,0,11.4,2.1,11.4,6.2v10.7c0,4.1-3.8,6.1-11.3,6.1h-7.9v13h-9.4v-35.9H352.1 M344.3,234.3h6
	c2.5,0,3.7-0.7,3.7-2.1v-10c0-1.4-1.4-2.1-4.2-2.1h-5.5V234.3 M352.1,209.8h-17.2c-3.3,0-6,2.7-6,6v35.9c0,3.3,2.7,6,6,6h9.4
	c3.3,0,6-2.7,6-6v-7h1.9c15.6,0,17.3-8.5,17.3-12.1v-10.7C369.5,218.3,367.8,209.8,352.1,209.8L352.1,209.8z"/>
<path class="st0" d="M378.6,251.7h-8.5v-26.8c0-3.7,3.4-5.5,10.2-5.5h6.4c6.8,0,10.2,1.8,10.2,5.5v26.8h-8.5v-11.8h-9.7V251.7z
	 M388.3,235.9v-10.8c0-1.3-1.2-1.9-3.7-1.9h-2.3c-2.5,0-3.7,0.6-3.7,1.9v10.8H388.3z"/>
<path class="st0" d="M386.6,219.4c6.8,0,10.2,1.8,10.2,5.5v26.8h-8.5v-11.8h-9.7v11.8h-8.5v-26.8c0-3.7,3.4-5.5,10.2-5.5H386.6
	 M378.6,235.9h9.7v-10.8c0-1.3-1.2-1.9-3.7-1.9h-2.3c-2.5,0-3.7,0.6-3.7,1.9V235.9 M386.6,213.4h-6.4c-14.6,0-16.2,8.1-16.2,11.5
	v26.8c0,3.3,2.7,6,6,6h8.5c2,0,3.8-1,4.9-2.5c1.1,1.5,2.9,2.5,4.9,2.5h8.5c3.3,0,6-2.7,6-6v-26.8
	C402.8,221.4,401.2,213.4,386.6,213.4L386.6,213.4z"/>
<path class="st0" d="M417.9,223.3v28.4h-8.5v-28.4h-8.1v-3.9H426v3.9H417.9z"/>
<path class="st0" d="M426,219.4v3.9h-8.1v28.4h-8.5v-28.4h-8.1v-3.9H426 M426,213.4h-24.8c-3.3,0-6,2.7-6,6v3.9c0,3.3,2.7,6,6,6h2.1
	v22.4c0,3.3,2.7,6,6,6h8.5c3.3,0,6-2.7,6-6v-22.4h2.1c3.3,0,6-2.7,6-6v-3.9C432,216,429.3,213.4,426,213.4L426,213.4z"/>
<path class="st0" d="M456.3,244.1v2.1c0,3.7-3.4,5.5-10.2,5.5h-5.5c-6.8,0-10.2-1.8-10.2-5.5v-21.3c0-3.7,3.4-5.5,10.2-5.5h5.5
	c6.8,0,10.2,1.8,10.2,5.5v3.6h-8.5v-3.3c0-1.3-1.3-1.9-3.8-1.9h-1.7c-2.2,0-3.4,0.6-3.4,1.9v20.7c0,1.3,1.1,1.9,3.4,1.9h2.1
	c2.2,0,3.4-0.6,3.4-1.9v-1.8H456.3z"/>
<path class="st0" d="M446.1,219.4c6.8,0,10.2,1.8,10.2,5.5v3.6h-8.5v-3.3c0-1.3-1.3-1.9-3.8-1.9h-1.7c-2.2,0-3.4,0.6-3.4,1.9v20.7
	c0,1.3,1.1,1.9,3.4,1.9h2.1c2.2,0,3.4-0.6,3.4-1.9v-1.8h8.5v2.1c0,3.7-3.4,5.5-10.2,5.5h-5.5c-6.8,0-10.2-1.8-10.2-5.5v-21.3
	c0-3.7,3.4-5.5,10.2-5.5H446.1 M446.1,213.4h-5.5c-14.6,0-16.2,8-16.2,11.5v21.3c0,3.5,1.6,11.5,16.2,11.5h5.5
	c14.6,0,16.2-8,16.2-11.5v-2.1c0-3.3-2.7-6-6-6h-8.5c-1,0-2,0.3-2.9,0.7v-5.1c0.8,0.5,1.8,0.7,2.9,0.7h8.5c3.3,0,6-2.7,6-6v-3.6
	C462.3,221.4,460.7,213.4,446.1,213.4L446.1,213.4z"/>
<path class="st0" d="M481.9,251.7V237h-10.4v14.7h-8.5v-32.3h8.5v13.7h10.4v-13.7h8.5v32.3H481.9z"/>
<path class="st0" d="M490.4,219.4v32.3h-8.5V237h-10.4v14.7h-8.5v-32.3h8.5v13.7h10.4v-13.7H490.4 M490.4,213.4h-8.5
	c-2.2,0-4.2,1.2-5.2,3c-1-1.8-3-3-5.2-3h-8.5c-3.3,0-6,2.7-6,6v32.3c0,3.3,2.7,6,6,6h8.5c2.2,0,4.2-1.2,5.2-3c1,1.8,3,3,5.2,3h8.5
	c3.3,0,6-2.7,6-6v-32.3C496.4,216,493.7,213.4,490.4,213.4L490.4,213.4z"/>
<path class="st0" d="M498.3,251.7v-32.3h21.1v3.9h-12.6v9.8H518v3.9h-11.2v10.8h12.6v3.9H498.3z"/>
<path class="st0" d="M519.4,219.4v3.9h-12.6v9.8H518v3.9h-11.2v10.8h12.6v3.9h-21.1v-32.3H519.4 M519.4,213.4h-21.1
	c-3.3,0-6,2.7-6,6v32.3c0,3.3,2.7,6,6,6h21.1c3.3,0,6-2.7,6-6v-3.9c0-2.7-1.7-4.9-4.2-5.7c1.7-1.1,2.7-2.9,2.7-5v-3.9
	c0-1.7-0.7-3.3-1.9-4.4c2-1,3.4-3,3.4-5.4v-3.9C525.4,216,522.7,213.4,519.4,213.4L519.4,213.4z"/>
<path class="st0" d="M541.8,228v-2.8c0-1.3-1.2-1.9-3.7-1.9h-1.3c-2.4,0-3.6,0.6-3.6,1.9v5.4c0,0.6,0.2,1,0.7,1.2
	c0.5,0.2,1.2,0.5,2.3,0.8l8.1,2.2c1.8,0.5,3,0.9,3.8,1.2c0.7,0.3,1.3,0.6,1.7,1c0.4,0.4,0.6,1.2,0.6,2.3v6.9c0,3.6-3.4,5.4-10.3,5.4
	h-5.2c-6.8,0-10.2-2-10.2-5.9v-1.6h8.5v1.8c0,1.3,1.3,1.9,3.8,1.9h1.5c2.2,0,3.4-0.6,3.4-1.9v-5.5c0-0.6-0.2-1-0.7-1.2
	c-0.5-0.2-1.2-0.5-2.3-0.8l-8.1-2.3c-1.8-0.5-3.1-0.9-3.9-1.2s-1.4-0.8-1.7-1.3c-0.4-0.5-0.5-1.2-0.5-2v-6.6c0-3.7,3.4-5.5,10.2-5.5
	h5.3c6.8,0,10.2,1.8,10.2,5.5v3.2H541.8z"/>
<path class="st0" d="M540.1,219.4c6.8,0,10.2,1.8,10.2,5.5v3.2h-8.5v-2.8c0-1.3-1.2-1.9-3.7-1.9h-1.3c-2.4,0-3.6,0.6-3.6,1.9v5.4
	c0,0.6,0.2,1,0.7,1.2c0.5,0.2,1.2,0.5,2.3,0.8l8.1,2.2c1.8,0.5,3,0.9,3.8,1.2c0.7,0.3,1.3,0.6,1.7,1c0.4,0.4,0.6,1.2,0.6,2.3v6.9
	c0,3.6-3.4,5.4-10.3,5.4h-5.2c-6.8,0-10.2-2-10.2-5.9v-1.6h8.5v1.8c0,1.3,1.3,1.9,3.8,1.9h1.5c2.2,0,3.4-0.6,3.4-1.9v-5.5
	c0-0.6-0.2-1-0.7-1.2c-0.5-0.2-1.2-0.5-2.3-0.8l-8.1-2.3c-1.8-0.5-3.1-0.9-3.9-1.2s-1.4-0.8-1.7-1.3c-0.4-0.5-0.5-1.2-0.5-2v-6.6
	c0-3.7,3.4-5.5,10.2-5.5H540.1 M540.1,213.4h-5.3c-14.6,0-16.2,8.1-16.2,11.5v6.6c0,2.1,0.5,3.9,1.6,5.4c0.5,0.7,1,1.3,1.7,1.9
	c-1.9,1-3.2,3-3.2,5.3v1.6c0,3.6,1.6,11.9,16.2,11.9h5.2c14.7,0,16.3-8,16.3-11.4v-6.9c0-2.8-0.8-5-2.3-6.5c1.4-1.1,2.3-2.8,2.3-4.8
	v-3.2C556.3,221.4,554.7,213.4,540.1,213.4L540.1,213.4z"/>
<path class="st1" d="M149.1,190.7v-35.9h9.4v35.9H149.1z"/>
<path class="st1" d="M184.6,174v-15.6h8.5v32.3h-8.5v-6.4l-9.1-14.7v21.2h-8.5v-32.3h8.5L184.6,174z"/>
<path class="st1" d="M218.6,174v-15.6h8.5v32.3h-8.5v-6.4l-9.1-14.7v21.2H201v-32.3h8.5L218.6,174z"/>
<path class="st1" d="M235.1,190.7v-32.3h21.1v3.9h-12.6v9.8h11.2v3.9h-11.2v10.8h12.6v3.9H235.1z"/>
<path class="st1" d="M262.3,158.4h16.6c6.5,0,9.7,1.8,9.7,5.5v8c0,2.8-1.7,4.6-5,5.4l5.9,13.5h-8.1l-5.6-13h-5.1v13h-8.5V158.4z
	 M270.8,173.9h5.6c2.5,0,3.8-0.8,3.8-2.3v-7c0-1.6-1.3-2.3-3.8-2.3h-5.6V173.9z"/>
<path class="st1" d="M296.2,154.8h17.2c7.6,0,11.4,2.1,11.4,6.2v10.7c0,4.1-3.8,6.1-11.3,6.1h-7.9v13h-9.4V154.8z M305.6,173.3h6
	c2.5,0,3.7-0.7,3.7-2.1v-10c0-1.4-1.4-2.1-4.2-2.1h-5.5V173.3z"/>
<path class="st1" d="M339.9,190.7h-8.5v-26.8c0-3.7,3.4-5.5,10.2-5.5h6.4c6.8,0,10.2,1.8,10.2,5.5v26.8h-8.5v-11.8h-9.7V190.7z
	 M349.6,174.9v-10.8c0-1.3-1.2-1.9-3.7-1.9h-2.3c-2.5,0-3.7,0.6-3.7,1.9v10.8H349.6z"/>
<path class="st1" d="M379.2,162.3v28.4h-8.5v-28.4h-8.1v-3.9h24.8v3.9H379.2z"/>
<path class="st1" d="M411.2,190.7V176h-10.4v14.7h-8.5v-32.3h8.5v13.7h10.4v-13.7h8.5v32.3H411.2z"/>
<path class="st1" d="M443.9,167v-2.8c0-1.3-1.2-1.9-3.7-1.9h-1.3c-2.4,0-3.6,0.6-3.6,1.9v5.4c0,0.6,0.2,1,0.7,1.2
	c0.5,0.2,1.2,0.5,2.3,0.8l8.1,2.2c1.8,0.5,3,0.9,3.8,1.2c0.7,0.3,1.3,0.6,1.7,1c0.4,0.4,0.6,1.2,0.6,2.3v6.9c0,3.6-3.4,5.4-10.3,5.4
	h-5.2c-6.8,0-10.2-2-10.2-5.9v-1.6h8.5v1.8c0,1.3,1.3,1.9,3.8,1.9h1.5c2.2,0,3.4-0.6,3.4-1.9v-5.5c0-0.6-0.2-1-0.7-1.2
	c-0.5-0.2-1.2-0.5-2.3-0.8l-8.1-2.3c-1.8-0.5-3.1-0.9-3.9-1.2c-0.8-0.3-1.4-0.8-1.7-1.3c-0.4-0.5-0.5-1.2-0.5-2v-6.6
	c0-3.7,3.4-5.5,10.2-5.5h5.3c6.8,0,10.2,1.8,10.2,5.5v3.2H443.9z"/>
<path class="st1" d="M459.9,154.8h17.2c7.6,0,11.4,2.1,11.4,6.2v10.7c0,4.1-3.8,6.1-11.3,6.1h-7.9v13h-9.4V154.8z M469.4,173.3h6
	c2.5,0,3.7-0.7,3.7-2.1v-10c0-1.4-1.4-2.1-4.2-2.1h-5.5V173.3z"/>
<path class="st1" d="M503.6,190.7h-8.5v-26.8c0-3.7,3.4-5.5,10.2-5.5h6.4c6.8,0,10.2,1.8,10.2,5.5v26.8h-8.5v-11.8h-9.7V190.7z
	 M513.4,174.9v-10.8c0-1.3-1.2-1.9-3.7-1.9h-2.3c-2.5,0-3.7,0.6-3.7,1.9v10.8H513.4z"/>
<path class="st1" d="M542.9,162.3v28.4h-8.5v-28.4h-8.1v-3.9h24.8v3.9H542.9z"/>
<path class="st1" d="M581.4,183.1v2.1c0,3.7-3.4,5.5-10.2,5.5h-5.5c-6.8,0-10.2-1.8-10.2-5.5v-21.3c0-3.7,3.4-5.5,10.2-5.5h5.5
	c6.8,0,10.2,1.8,10.2,5.5v3.6h-8.5v-3.3c0-1.3-1.3-1.9-3.8-1.9h-1.7c-2.2,0-3.4,0.6-3.4,1.9v20.7c0,1.3,1.1,1.9,3.4,1.9h2.1
	c2.2,0,3.4-0.6,3.4-1.9v-1.8H581.4z"/>
<path class="st1" d="M606.9,190.7V176h-10.4v14.7H588v-32.3h8.5v13.7h10.4v-13.7h8.5v32.3H606.9z"/>
<path class="st1" d="M623.4,190.7v-32.3h21.1v3.9h-12.6v9.8h11.2v3.9h-11.2v10.8h12.6v3.9H623.4z"/>
<path class="st1" d="M666.9,167v-2.8c0-1.3-1.2-1.9-3.7-1.9h-1.3c-2.4,0-3.6,0.6-3.6,1.9v5.4c0,0.6,0.2,1,0.7,1.2
	c0.5,0.2,1.2,0.5,2.3,0.8l8.1,2.2c1.8,0.5,3,0.9,3.8,1.2c0.7,0.3,1.3,0.6,1.7,1c0.4,0.4,0.6,1.2,0.6,2.3v6.9c0,3.6-3.4,5.4-10.3,5.4
	h-5.2c-6.8,0-10.2-2-10.2-5.9v-1.6h8.5v1.8c0,1.3,1.3,1.9,3.8,1.9h1.5c2.2,0,3.4-0.6,3.4-1.9v-5.5c0-0.6-0.2-1-0.7-1.2
	c-0.5-0.2-1.2-0.5-2.3-0.8l-8.1-2.3c-1.8-0.5-3.1-0.9-3.9-1.2s-1.4-0.8-1.7-1.3c-0.4-0.5-0.5-1.2-0.5-2v-6.6c0-3.7,3.4-5.5,10.2-5.5
	h5.3c6.8,0,10.2,1.8,10.2,5.5v3.2H666.9z"/>
<path class="st1" d="M24,251.7v-35.9h9.4v35.9H24z"/>
<path class="st1" d="M59.5,235v-15.6H68v32.3h-8.5v-6.4l-9.1-14.7v21.2h-8.5v-32.3h8.5L59.5,235z"/>
<path class="st1" d="M93.6,235v-15.6h8.5v32.3h-8.5v-6.4l-9.1-14.7v21.2H76v-32.3h8.5L93.6,235z"/>
<path class="st1" d="M110,251.7v-32.3h21.1v3.9h-12.6v9.8h11.2v3.9h-11.2v10.8h12.6v3.9H110z"/>
<path class="st1" d="M137.2,219.4h16.6c6.5,0,9.7,1.8,9.7,5.5v8c0,2.8-1.7,4.6-5,5.4l5.9,13.5h-8.1l-5.6-13h-5.1v13h-8.5V219.4z
	 M145.7,234.9h5.6c2.5,0,3.8-0.8,3.8-2.3v-7c0-1.6-1.3-2.3-3.8-2.3h-5.6V234.9z"/>
<path class="st1" d="M171.1,215.8h17.2c7.6,0,11.4,2.1,11.4,6.2v10.7c0,4.1-3.8,6.1-11.3,6.1h-7.9v13h-9.4V215.8z M180.6,234.3h6
	c2.5,0,3.7-0.7,3.7-2.1v-10c0-1.4-1.4-2.1-4.2-2.1h-5.5V234.3z"/>
<path class="st1" d="M214.8,251.7h-8.5v-26.8c0-3.7,3.4-5.5,10.2-5.5h6.4c6.8,0,10.2,1.8,10.2,5.5v26.8h-8.5v-11.8h-9.7V251.7z
	 M224.6,235.9v-10.8c0-1.3-1.2-1.9-3.7-1.9h-2.3c-2.5,0-3.7,0.6-3.7,1.9v10.8H224.6z"/>
<path class="st1" d="M254.1,223.3v28.4h-8.5v-28.4h-8.1v-3.9h24.8v3.9H254.1z"/>
<path class="st1" d="M286.1,251.7V237h-10.4v14.7h-8.5v-32.3h8.5v13.7h10.4v-13.7h8.5v32.3H286.1z"/>
<path class="st1" d="M318.8,228v-2.8c0-1.3-1.2-1.9-3.7-1.9h-1.3c-2.4,0-3.6,0.6-3.6,1.9v5.4c0,0.6,0.2,1,0.7,1.2
	c0.5,0.2,1.2,0.5,2.3,0.8l8.1,2.2c1.8,0.5,3,0.9,3.8,1.2c0.7,0.3,1.3,0.6,1.7,1c0.4,0.4,0.6,1.2,0.6,2.3v6.9c0,3.6-3.4,5.4-10.3,5.4
	h-5.2c-6.8,0-10.2-2-10.2-5.9v-1.6h8.5v1.8c0,1.3,1.3,1.9,3.8,1.9h1.5c2.2,0,3.4-0.6,3.4-1.9v-5.5c0-0.6-0.2-1-0.7-1.2
	c-0.5-0.2-1.2-0.5-2.3-0.8l-8.1-2.3c-1.8-0.5-3.1-0.9-3.9-1.2c-0.8-0.3-1.4-0.8-1.7-1.3c-0.4-0.5-0.5-1.2-0.5-2v-6.6
	c0-3.7,3.4-5.5,10.2-5.5h5.3c6.8,0,10.2,1.8,10.2,5.5v3.2H318.8z"/>
<path class="st1" d="M334.9,215.8h17.2c7.6,0,11.4,2.1,11.4,6.2v10.7c0,4.1-3.8,6.1-11.3,6.1h-7.9v13h-9.4V215.8z M344.3,234.3h6
	c2.5,0,3.7-0.7,3.7-2.1v-10c0-1.4-1.4-2.1-4.2-2.1h-5.5V234.3z"/>
<path class="st1" d="M378.6,251.7h-8.5v-26.8c0-3.7,3.4-5.5,10.2-5.5h6.4c6.8,0,10.2,1.8,10.2,5.5v26.8h-8.5v-11.8h-9.7V251.7z
	 M388.3,235.9v-10.8c0-1.3-1.2-1.9-3.7-1.9h-2.3c-2.5,0-3.7,0.6-3.7,1.9v10.8H388.3z"/>
<path class="st1" d="M417.9,223.3v28.4h-8.5v-28.4h-8.1v-3.9H426v3.9H417.9z"/>
<path class="st1" d="M456.3,244.1v2.1c0,3.7-3.4,5.5-10.2,5.5h-5.5c-6.8,0-10.2-1.8-10.2-5.5v-21.3c0-3.7,3.4-5.5,10.2-5.5h5.5
	c6.8,0,10.2,1.8,10.2,5.5v3.6h-8.5v-3.3c0-1.3-1.3-1.9-3.8-1.9h-1.7c-2.2,0-3.4,0.6-3.4,1.9v20.7c0,1.3,1.1,1.9,3.4,1.9h2.1
	c2.2,0,3.4-0.6,3.4-1.9v-1.8H456.3z"/>
<path class="st1" d="M481.9,251.7V237h-10.4v14.7h-8.5v-32.3h8.5v13.7h10.4v-13.7h8.5v32.3H481.9z"/>
<path class="st1" d="M498.3,251.7v-32.3h21.1v3.9h-12.6v9.8H518v3.9h-11.2v10.8h12.6v3.9H498.3z"/>
<path class="st1" d="M541.8,228v-2.8c0-1.3-1.2-1.9-3.7-1.9h-1.3c-2.4,0-3.6,0.6-3.6,1.9v5.4c0,0.6,0.2,1,0.7,1.2
	c0.5,0.2,1.2,0.5,2.3,0.8l8.1,2.2c1.8,0.5,3,0.9,3.8,1.2c0.7,0.3,1.3,0.6,1.7,1c0.4,0.4,0.6,1.2,0.6,2.3v6.9c0,3.6-3.4,5.4-10.3,5.4
	h-5.2c-6.8,0-10.2-2-10.2-5.9v-1.6h8.5v1.8c0,1.3,1.3,1.9,3.8,1.9h1.5c2.2,0,3.4-0.6,3.4-1.9v-5.5c0-0.6-0.2-1-0.7-1.2
	c-0.5-0.2-1.2-0.5-2.3-0.8l-8.1-2.3c-1.8-0.5-3.1-0.9-3.9-1.2s-1.4-0.8-1.7-1.3c-0.4-0.5-0.5-1.2-0.5-2v-6.6c0-3.7,3.4-5.5,10.2-5.5
	h5.3c6.8,0,10.2,1.8,10.2,5.5v3.2H541.8z"/>
<path class="st1" d="M564.7,244.6v5.6h-9.2v-5.6H564.7z"/>
<path class="st1" d="M597.4,242.5v2.1c0,3.7-3.5,5.6-10.4,5.6h-5.6c-6.9,0-10.4-1.9-10.4-5.6v-21.8c0-3.7,3.5-5.6,10.4-5.6h5.6
	c6.9,0,10.4,1.9,10.4,5.6v3.7h-8.7v-3.4c0-1.3-1.3-1.9-3.9-1.9h-1.7c-2.3,0-3.4,0.6-3.4,1.9v21.1c0,1.3,1.1,1.9,3.4,1.9h2.2
	c2.3,0,3.4-0.6,3.4-1.9v-1.8H597.4z"/>
<path class="st1" d="M614.2,250.2c-7,0-10.5-1.9-10.5-5.6v-21.7c0-3.8,3.5-5.6,10.4-5.6h8.3c6.9,0,10.4,1.9,10.4,5.6v21.7
	c0,3.7-3.5,5.6-10.5,5.6H614.2z M616.3,246.2h4.4c2.3,0,3.4-0.6,3.4-1.9v-21.1c0-1.3-1.3-1.9-3.9-1.9h-4.1c-2.5,0-3.8,0.6-3.8,1.9
	v21.1C612.4,245.6,613.7,246.2,616.3,246.2z"/>
<path class="st1" d="M658.1,236.6l8-19.4h9.6v33H667l0.9-21.6l-6.5,15.6h-6.7l-6.5-15.6l0.9,21.6h-8.7v-33h9.6L658.1,236.6z"/>
<path class="st1" d="M-67.4,25.1c0-11-8.9-20-20-20c-11,0-20,8.9-20,20c0,10,7.3,18.2,16.9,19.7v-14h-5.1v-5.8h5.1v-4.4
	c0-5,3-7.8,7.5-7.8c2.2,0,4.5,0.4,4.5,0.4v4.9H-81c-2.5,0-3.3,1.5-3.3,3.1v3.7h5.5l-0.9,5.8h-4.7v14C-74.7,43.4-67.4,35.1-67.4,25.1
	z"/>
<g>
	<path class="st2" d="M193.5-113.1c2.9,0,5.7,0,8.6,0c2.7,0,5.1,0.8,7.2,2.5c1.9,1.5,3.1,3.5,3.7,5.9c0.2,0.9,0.3,1.8,0.3,2.7
		c0,5.9,0,11.8,0,17.7c0,3.4-1.4,6.3-4,8.5c-2,1.7-4.3,2.5-6.9,2.5c-6,0-12,0.1-18,0c-4,0-7.1-1.9-9.3-5.3c-1.1-1.7-1.6-3.7-1.6-5.7
		c0-5.9,0-11.8,0-17.6c0-4.3,2-7.5,5.7-9.7c1.6-0.9,3.4-1.3,5.3-1.3C187.6-113.1,190.6-113.1,193.5-113.1z M209.9-93.9
		c0-2.6,0.1-5.7-0.1-8.9c-0.1-1.6-0.7-3-1.8-4.3c-1.6-1.7-3.5-2.5-5.9-2.5c-5.5,0-11,0-16.5,0c-0.6,0-1.1,0-1.7,0
		c-1.6,0.1-3.1,0.7-4.3,1.8c-1.7,1.5-2.5,3.5-2.5,5.8c0,5.5,0,10.9,0,16.4c0,0.6,0,1.2,0,1.8c0.1,1.6,0.7,3,1.8,4.3
		c1.6,1.7,3.5,2.5,5.9,2.5c5.6,0,11.2,0,16.8,0c0.4,0,0.9,0,1.3,0c2.4-0.2,4.3-1.3,5.7-3.3c0.9-1.3,1.2-2.7,1.2-4.2
		C209.9-87.4,209.9-90.3,209.9-93.9z"/>
	<path class="st2" d="M193.5-83c-5.6,0-10.2-4.6-10.2-10.2c0-5.6,4.6-10.2,10.2-10.2c5.6,0,10.2,4.6,10.2,10.2
		C203.8-87.6,199.2-83,193.5-83z M193.5-86.5c3.7,0,6.7-3,6.7-6.7c0-3.7-3-6.7-6.7-6.7c-3.7,0-6.7,3-6.7,6.7
		C186.8-89.5,189.8-86.5,193.5-86.5z"/>
	<path class="st2" d="M204.2-101.3c-1.4,0-2.6-1.2-2.6-2.6c0-1.4,1.2-2.6,2.6-2.6c1.4,0,2.6,1.2,2.6,2.6
		C206.8-102.4,205.6-101.3,204.2-101.3z"/>
</g>
<path class="st1" d="M111.5,191.7c-10.9,0-19.9-8.9-19.9-19.8c0-11,8.8-19.9,19.8-19.9c11,0,19.9,8.9,19.9,19.9
	C131.3,182.8,122.4,191.7,111.5,191.7z M116.1,166.5C116.1,166.5,116.1,166.5,116.1,166.5c0.1,0,0.1,0,0.1,0.1
	c0.7,0.7,1.4,1.2,2.3,1.6c0.9,0.4,1.9,0.7,2.9,0.8c0.1,0,0.1,0,0.1-0.1c0.2-1.1,0.5-2.3,0.7-3.4c0.1-0.3,0.1-0.3-0.3-0.4
	c-1.5-0.2-2.7-0.9-3.8-1.9c-0.8-0.8-1.5-1.7-2-2.7c-0.1-0.1-0.2-0.2-0.3-0.2c-1.2,0-2.4,0-3.6,0c-0.2,0-0.2,0-0.2,0.2
	c0,5.1,0,10.1,0,15.2c0,0.2,0,0.4,0,0.6c-0.3,2-2.3,3.4-4.3,3c-2-0.4-3.2-2.2-2.9-4.2c0.3-1.6,1.6-2.9,3.3-3c0.5,0,1.1,0,1.6,0
	c0.1,0,0.2,0,0.2-0.2c0-1.1,0-2.3,0-3.4c0-0.2,0.1-0.4,0-0.4c-0.1-0.1-0.3,0-0.5,0c-0.8,0-1.7,0-2.5,0.2c-4.2,0.8-6.9,5-6,9.2
	c0.9,4,4.6,6.5,8.6,5.9c2.6-0.4,4.5-1.8,5.7-4.1c0.6-1.1,0.9-2.4,0.9-3.7c0-2.9,0-5.9,0-8.8C116.1,166.7,116.1,166.6,116.1,166.5z"
	/>
<g>
	<path class="st3" d="M25,44.9C13.9,44.9,5.1,36.1,5.1,25C5.1,14,14,5.1,25,5.1c11,0,19.8,8.9,19.8,19.9C44.9,36,36,44.9,25,44.9z
		 M10.1,24.2c0.8,0,1.7,0,2.5,0c0.7,0,1-0.1,1-0.9c0-1.4,0.3-2.7,0.6-4c0.3-1.2,1.4-2.7,1-3.6c-0.4-1-2.1-1.4-3.2-2.1
		c-0.7-0.5-1-0.3-1.4,0.3c-1.6,2.1-2.7,4.5-3.4,7.1c-0.8,3.3-0.8,3.3,2.5,3.3C9.9,24.2,10,24.2,10.1,24.2z M39.9,24.1
		C39.9,24.1,39.9,24.2,39.9,24.1c0.7,0,1.5,0,2.2,0c0.8,0.1,1.1-0.1,1-1c-0.4-3.3-1.5-6.2-3.4-8.9c-0.6-0.9-1.1-1.4-2.2-0.5
		c-0.6,0.6-1.5,0.9-2.3,1.3c-0.5,0.2-0.7,0.5-0.5,1.1c0.7,1.6,1,3.3,1.4,5.1c0.2,1-0.3,2.3,0.6,2.8C37.7,24.5,38.8,24.1,39.9,24.1z
		 M10.1,25.8c-0.8,0-1.6,0-2.4,0C7,25.8,6.8,26,6.9,26.7c0.4,3.5,1.7,6.7,3.8,9.6c0.4,0.6,0.8,0.6,1.3,0.2c0.8-0.6,1.7-1.1,2.6-1.5
		c0.7-0.3,0.8-0.6,0.5-1.3c-0.8-2-1.5-4-1.5-6.1c0-1.4-0.5-2-1.9-1.7C11.2,25.9,10.6,25.8,10.1,25.8z M43.1,26.4
		c0.1-0.5-0.1-0.6-0.7-0.6c-1.6,0-3.3,0.1-4.9,0c-0.9,0-1.1,0.3-1.1,1c0,1.4-0.3,2.7-0.6,4c-0.3,1.3-1.5,2.6-0.9,3.6
		c0.6,1,2.2,1.3,3.3,2.1c0.5,0.4,0.8,0.2,1.1-0.2C41.5,33.4,42.8,30.2,43.1,26.4z M30.3,24.2c1.2,0,2.5,0,3.7,0
		c0.6,0,0.8-0.2,0.8-0.8C34.5,21.2,34,19,33.2,17c-0.2-0.7-0.5-0.9-1.3-0.6c-1.7,0.6-3.5,1-5.3,1c-0.7,0-0.9,0.3-0.9,0.9
		c0,1.7,0,3.3,0,5c0,0.7,0.2,0.9,0.9,0.9C27.9,24.1,29.1,24.2,30.3,24.2z M19.7,24.2c1.2,0,2.4,0,3.6,0c0.7,0,0.9-0.2,0.9-0.9
		c0-1.7,0-3.3,0-5c0-0.7-0.2-0.9-0.9-0.9c-1.8,0-3.6-0.4-5.3-1c-0.7-0.3-1,0-1.2,0.6c-0.8,2.1-1.2,4.2-1.5,6.4
		c-0.1,0.7,0.1,0.8,0.8,0.8C17.3,24.1,18.5,24.2,19.7,24.2z M19.6,25.8c-1.2,0-2.4,0-3.6,0c-0.7,0-1,0.2-0.9,0.9
		c0.3,2.2,0.6,4.3,1.5,6.4c0.2,0.5,0.4,0.7,1.1,0.5c1.8-0.6,3.7-1,5.7-1.1c0.6,0,0.7-0.2,0.7-0.8c0-1.7,0-3.4,0-5
		c0-0.6-0.2-0.8-0.8-0.8C22.1,25.9,20.9,25.8,19.6,25.8z M30.4,25.8c-1.2,0-2.5,0-3.7,0c-0.6,0-0.9,0.1-0.9,0.8c0,1.7,0,3.4,0,5
		c0,0.7,0.3,0.8,0.8,0.8c1.8,0.2,3.7,0.4,5.4,1.1c0.7,0.3,0.9,0,1.1-0.5c0.9-2,1.3-4.2,1.5-6.4c0.1-0.7-0.1-0.9-0.8-0.8
		C32.8,25.9,31.6,25.8,30.4,25.8z M24.2,42.4c0-2.7,0-5.1,0-7.6c0-0.6-0.3-0.6-0.8-0.6c-1.9,0.1-3.7,0.4-5.5,1.2
		C19.5,38.1,21.5,40.3,24.2,42.4z M25.8,42.4c2.7-2.1,4.7-4.3,6.3-7c-1.8-0.7-3.6-1.1-5.5-1.2c-0.7,0-0.8,0.2-0.8,0.8
		C25.8,37.4,25.8,39.7,25.8,42.4z M24.2,7.6c-2.5,1.9-4.4,4-5.9,6.4c-0.3,0.5-0.1,0.6,0.4,0.8c1.6,0.5,3.2,0.7,4.8,0.9
		c0.7,0.1,0.8-0.2,0.8-0.8C24.2,12.6,24.2,10.2,24.2,7.6z M25.8,7.6c0,2.7,0,5.1,0,7.6c0,0.4,0.1,0.6,0.5,0.5c1.7-0.2,3.5-0.4,5.2-1
		c0.4-0.2,0.5-0.3,0.3-0.6C30.3,11.6,28.4,9.5,25.8,7.6z M37.6,38.1c-1.2-0.7-2.2-1.2-3.2-1.8c-0.3-0.2-0.6-0.3-0.9,0.1
		c-1.3,2.4-3.1,4.3-5,6.2C32,42.1,34.9,40.6,37.6,38.1z M28.5,7.4c1.9,1.8,3.5,3.7,4.8,5.9c0.2,0.3,0.3,0.8,0.9,0.5
		c0.9-0.6,1.8-1,2.7-1.6c0.4-0.2,0.5-0.5,0.1-0.8C34.5,9.2,31.7,7.8,28.5,7.4z M12.5,38.1c2.6,2.4,5.4,3.9,8.8,4.4
		c-1.2-1.3-2.3-2.5-3.4-3.8c-0.7-0.8-0.9-2.5-2-2.4c-1.1,0-2.1,1-3.1,1.6C12.7,37.9,12.7,38,12.5,38.1z M21.4,7.3
		c-3.2,0.5-5.9,1.9-8.3,4c-0.1,0.1-0.4,0.3-0.3,0.4c0.7,1,1.9,1.3,2.9,1.9c0.4,0.3,0.7,0.2,1-0.3C17.9,11,19.6,9.1,21.4,7.3z"/>
</g>
</svg>
